<?xml version="1.0" encoding="utf-8"?>
<!-- Generator: Adobe Illustrator 27.8.1, SVG Export Plug-In . SVG Version: 6.00 Build 0)  -->
<svg version="1.1" id="Слой_1" xmlns="http://www.w3.org/2000/svg" xmlns:xlink="http://www.w3.org/1999/xlink" x="0px" y="0px"
	 viewBox="0 0 110 150" style="enable-background:new 0 0 110 150;" xml:space="preserve">
<style type="text/css">
	.st0{fill:#C9C9C9;}
	.st1{fill:#FFFFFF;}
	.st2{fill:#333333;}
	.st3{fill:#D66142;}
	.st4{opacity:0.2;fill:#616161;}
</style>
<g>
	<g>
		<path class="st0" d="M13.3,150c-6.3,0-11.5-5.1-11.5-11.3L1.4,11.4C1.4,5.1,6.6,0,12.9,0l84.2,0.2c6.3,0,11.5,5.1,11.5,11.4v127.1
			c0,6.2-5.1,11.3-11.4,11.3L13.3,150z"/>
	</g>
	<path class="st1" d="M14.3,149.7c-6.3,0-11.3-5.1-11.3-11.3V11.3C3,5.1,8.1,0,14.3,0h82.9c6.3,0,11.3,5.1,11.3,11.3v127.1
		c0,6.2-5.1,11.3-11.3,11.3H14.3z"/>
	<g>
		<path class="st2" d="M91.1,129.5h3.5v5.8h2.1c0.1-0.1,0.3-0.5,0.4-1.1c0.4-1.5,0.8-2.7,1.3-3.6c0.2-0.4,0.5-0.7,0.7-0.9
			c0.3-0.3,0.7-0.4,1.1-0.4c0.3,0,0.6,0.1,0.9,0.3c0.4,0.2,0.6,0.5,0.6,0.8c0,0.2-0.1,0.3-0.2,0.4c-0.1,0.1-0.2,0.2-0.4,0.2
			c-0.3,0-0.5-0.2-0.5-0.5c0-0.4-0.2-0.5-0.4-0.5c-0.6,0-1,0.3-1.2,0.9c-0.1,0.4-0.2,1-0.2,1.7c0,0.5,0,1,0.1,1.5
			c0,0.6,0.1,1.2,0.2,1.8c0,0.7-0.1,1.4-0.4,2.1c-0.2,0.5-0.6,1-1.1,1.6c-0.3,0.3-0.8,0.8-1.5,1.4l0.1,0.2h3.1c0.2,0,0.4,0,0.5-0.1
			c0.3-0.1,0.6-0.2,0.9-0.3v0.2c-0.1,0.2-0.2,0.4-0.3,0.5c-0.2,0.3-0.3,0.5-0.4,0.5c0,0-0.1,0-0.2-0.1c-0.1-0.1-0.3-0.1-0.4-0.1
			h-8.3V129.5z M94.7,136.1v4.6c0.3-0.1,0.6-0.4,1-1c0.1-0.2,0.3-0.5,0.4-0.9c0.1-0.3,0.2-0.6,0.3-1c0.2-0.8,0.3-1.2,0.3-1.2v-0.5
			H94.7z"/>
	</g>
	<g>
		<polygon class="st3" points="18.1,34 14.9,29.9 18.1,25.8 21.4,29.9 		"/>
		<polygon class="st4" points="18.1,25.8 18.1,25.9 18.1,34 18.1,34 21.4,29.9 		"/>
	</g>
	<g>
		<path class="st2" d="M22.4,21.6h-3.5v-5.8h-2.1c-0.1,0.1-0.3,0.5-0.4,1.1c-0.4,1.5-0.8,2.7-1.3,3.6c-0.2,0.4-0.5,0.7-0.7,0.9
			c-0.4,0.3-0.7,0.4-1.1,0.4c-0.3,0-0.6-0.1-0.9-0.3c-0.4-0.2-0.6-0.5-0.6-0.8c0-0.2,0.1-0.3,0.2-0.4c0.1-0.1,0.2-0.2,0.4-0.2
			c0.3,0,0.5,0.2,0.5,0.5c0,0.3,0.2,0.5,0.4,0.5c0.6,0,1-0.3,1.2-0.9c0.1-0.4,0.2-1,0.2-1.7c0-0.4,0-1-0.1-1.5
			c0-0.6-0.1-1.2-0.2-1.8c0-0.7,0.1-1.4,0.4-2.1c0.2-0.5,0.6-1,1.1-1.6c0.3-0.3,0.8-0.8,1.5-1.4l-0.1-0.2h-3.1c-0.2,0-0.4,0-0.5,0.1
			c-0.3,0.1-0.6,0.2-0.9,0.3v-0.2c0.1-0.2,0.2-0.4,0.3-0.5c0.2-0.3,0.3-0.5,0.4-0.5c0,0,0.1,0,0.2,0.1c0.1,0.1,0.3,0.1,0.4,0.1h8.3
			V21.6z M18.8,15v-4.6c-0.3,0.1-0.6,0.4-1,1c-0.1,0.2-0.3,0.5-0.4,0.9c-0.1,0.3-0.2,0.6-0.3,1c-0.2,0.8-0.3,1.2-0.3,1.2V15H18.8z"
			/>
	</g>
	<g>
		<polygon class="st3" points="95.4,117 98.6,121.2 95.4,125.3 92.1,121.2 		"/>
		<polygon class="st4" points="95.4,117.1 95.4,117 92.1,121.2 95.4,125.3 95.4,125.2 		"/>
	</g>
	<g>
		<polygon class="st3" points="55.8,46.6 33.4,74.8 55.8,103.1 78.1,74.8 		"/>
		<polygon class="st4" points="55.6,46.8 55.8,46.6 78.1,74.8 55.8,103.1 55.6,102.9 		"/>
	</g>
</g>
</svg>
