<?xml version="1.0" encoding="utf-8"?>
<!-- Generator: Adobe Illustrator 27.8.1, SVG Export Plug-In . SVG Version: 6.00 Build 0)  -->
<svg version="1.1" id="Слой_1" xmlns="http://www.w3.org/2000/svg" xmlns:xlink="http://www.w3.org/1999/xlink" x="0px" y="0px"
	 viewBox="0 0 110 150" style="enable-background:new 0 0 110 150;" xml:space="preserve">
<style type="text/css">
	.st0{fill:#C9C9C9;}
	.st1{fill:#FFFFFF;}
	.st2{fill:#333333;}
	.st3{fill:#D66142;}
	.st4{opacity:0.2;fill:#616161;}
</style>
<g>
	<g>
		<path class="st0" d="M13.3,150c-6.3,0-11.5-5.1-11.5-11.3L1.4,11.3C1.4,5.1,6.6,0,12.9,0l84.2,0.2c6.3,0,11.5,5.1,11.5,11.4v127.1
			c0,6.2-5.1,11.3-11.5,11.3L13.3,150z"/>
	</g>
	<path class="st1" d="M14.3,149.7c-6.3,0-11.3-5.1-11.3-11.3V11.3C3,5.1,8.1,0,14.3,0h82.9c6.3,0,11.3,5.1,11.3,11.3v127.1
		c0,6.2-5.1,11.3-11.3,11.3H14.3z"/>
	<g>
		<path class="st2" d="M91,132.8c0.2-0.5,0.5-1.1,1-1.8c0.6-0.9,1.1-1.4,1.5-1.4h5c0.1,0,0.1,0,0.2,0c0.1,0,0.2-0.1,0.3-0.1h0.3v0.4
			c-0.2,0.2-0.4,0.4-0.6,0.6c-0.6,0.8-1.3,1.7-2.1,2.7c-0.6,0.8-1.1,1.4-1.3,1.9c-0.4,0.7-0.7,1.3-0.7,1.7c0,0.3,0.1,0.6,0.2,0.9
			c0.1,0.3,0.3,0.6,0.5,0.8c0.1,0.1,0.3,0.2,0.6,0.4c0.4,0.2,0.7,0.3,0.9,0.3c0.3,0,0.7-0.2,1.3-0.7c0.5-0.4,0.9-0.6,0.9-0.6
			c0.2,0,0.3,0.1,0.3,0.3c0,0.2-0.2,0.5-0.7,1c-0.5,0.5-0.9,0.9-1.3,1.2c-0.6,0.4-0.9,0.6-1,0.6c-0.5,0.3-0.9,0.4-1.3,0.4
			c-0.7,0-1.3-0.3-1.9-0.8c-0.6-0.6-0.9-1.2-0.9-2c0-0.7,0.2-1.4,0.6-2c0.1-0.1,0.4-0.5,0.9-1.2c0.8-1,1.2-1.6,1.3-1.8
			c0.6-0.8,0.9-1.2,0.9-1.3c0-0.2-0.1-0.2-0.3-0.3c-0.2,0-0.4,0-0.6,0c-0.1,0-0.3,0-0.4,0c-0.2,0-0.2,0-0.3,0c-1,0-1.7,0.1-2.1,0.4
			c-0.3,0.3-0.7,0.6-1,0.8c0,0-0.1,0-0.1,0c0,0-0.1,0-0.1-0.1V132.8z"/>
	</g>
	<g>
		<polygon class="st3" points="18.2,34.3 14.7,29.9 18.2,25.5 21.6,29.9 		"/>
		<polygon class="st4" points="18.2,25.5 18.1,25.6 18.1,34.3 18.2,34.3 21.6,29.9 		"/>
	</g>
	<g>
		<path class="st2" d="M22.5,18.2c-0.2,0.5-0.5,1.1-1,1.8c-0.6,0.9-1.1,1.4-1.5,1.4h-5c-0.1,0-0.1,0-0.2,0.1c-0.1,0-0.2,0.1-0.3,0.1
			h-0.3v-0.4c0.2-0.2,0.4-0.4,0.6-0.6c0.6-0.8,1.3-1.7,2.1-2.7c0.6-0.8,1.1-1.4,1.3-1.9c0.4-0.7,0.7-1.3,0.7-1.7
			c0-0.3-0.1-0.6-0.2-0.9c-0.1-0.3-0.3-0.6-0.5-0.8c-0.1-0.1-0.3-0.3-0.6-0.4c-0.4-0.2-0.7-0.3-0.9-0.3c-0.3,0-0.7,0.2-1.3,0.6
			c-0.5,0.4-0.9,0.7-0.9,0.7c-0.2,0-0.3-0.1-0.3-0.3c0-0.2,0.2-0.5,0.7-1c0.5-0.5,0.9-0.9,1.3-1.2c0.6-0.4,0.9-0.6,1-0.6
			c0.5-0.3,0.9-0.4,1.3-0.4c0.7,0,1.3,0.3,1.9,0.8c0.6,0.6,0.9,1.2,0.9,2c0,0.7-0.2,1.4-0.6,2c-0.1,0.1-0.4,0.5-0.9,1.2
			c-0.8,1-1.2,1.6-1.3,1.8c-0.6,0.8-0.9,1.2-0.9,1.3c0,0.2,0.1,0.2,0.3,0.3c0.2,0,0.4,0.1,0.6,0.1c0.1,0,0.3,0,0.4,0
			c0.2,0,0.2,0,0.3,0c1,0,1.7-0.1,2.1-0.4c0.4-0.3,0.7-0.6,1.1-0.8c0,0,0.1,0,0.1,0c0.1,0,0.1,0,0.1,0.1V18.2z"/>
	</g>
	<g>
		<polygon class="st3" points="95.4,116.8 98.8,121.2 95.4,125.5 91.9,121.2 		"/>
		<polygon class="st4" points="95.4,116.8 95.4,116.8 91.9,121.2 95.4,125.5 95.4,125.5 		"/>
	</g>
	<g>
		<polygon class="st3" points="55.8,37.7 44.6,51.9 55.8,66 67,51.9 		"/>
		<polygon class="st4" points="55.7,37.8 55.8,37.7 67,51.9 55.8,66 55.7,65.9 		"/>
	</g>
	<g>
		<polygon class="st3" points="55.8,86.5 67,100.7 55.8,114.8 44.6,100.7 		"/>
		<polygon class="st4" points="55.9,86.6 55.8,86.5 44.6,100.7 55.8,114.8 55.9,114.7 		"/>
	</g>
</g>
</svg>
