<?xml version="1.0" encoding="utf-8"?>
<!-- Generator: Adobe Illustrator 27.8.1, SVG Export Plug-In . SVG Version: 6.00 Build 0)  -->
<svg version="1.1" id="Слой_1" xmlns="http://www.w3.org/2000/svg" xmlns:xlink="http://www.w3.org/1999/xlink" x="0px" y="0px"
	 viewBox="0 0 110 150" style="enable-background:new 0 0 110 150;" xml:space="preserve">
<style type="text/css">
	.st0{fill:#C9C9C9;}
	.st1{fill:#FFFFFF;}
	.st2{fill:#D66142;}
	.st3{opacity:0.2;fill:#616161;}
	.st4{fill:#333333;}
</style>
<g>
	<g>
		<path class="st0" d="M13.3,150c-6.3,0-11.5-5.1-11.5-11.3L1.4,11.3C1.4,5.1,6.6,0,12.9,0l84.2,0.2c6.3,0,11.5,5.1,11.5,11.4v127.1
			c0,6.2-5.1,11.3-11.5,11.3L13.3,150z"/>
	</g>
	<path class="st1" d="M14.3,149.7C8,149.7,3,144.6,3,138.4V11.3C3,5.1,8,0,14.3,0h82.9c6.2,0,11.3,5.1,11.3,11.3v127.1
		c0,6.2-5.1,11.3-11.3,11.3H14.3z"/>
	<g>
		<polygon class="st2" points="75.9,10.8 64.7,24.9 75.9,39 87.1,24.9 		"/>
		<polygon class="st3" points="75.8,10.9 75.9,10.8 87.1,24.9 75.9,39 75.8,38.9 		"/>
	</g>
	<g>
		<polygon class="st2" points="35.7,110.7 46.9,124.8 35.7,138.9 24.5,124.8 		"/>
		<polygon class="st3" points="35.8,110.7 35.7,110.7 24.5,124.8 35.7,138.9 35.8,138.8 		"/>
	</g>
	<g>
		<polygon class="st2" points="35.7,10.8 46.9,24.9 35.7,39 24.5,24.9 		"/>
		<polygon class="st3" points="35.8,10.9 35.7,10.8 24.5,24.9 35.7,39 35.8,38.9 		"/>
	</g>
	<g>
		<polygon class="st2" points="55.8,60.7 44.6,74.8 55.8,89 67,74.8 		"/>
		<polygon class="st3" points="55.7,60.8 55.8,60.7 67,74.8 55.8,89 55.7,88.9 		"/>
	</g>
	<g>
		<polygon class="st2" points="75.9,110.7 64.7,124.8 75.9,138.9 87.1,124.8 		"/>
		<polygon class="st3" points="75.8,110.7 75.9,110.7 87.1,124.8 75.9,138.9 75.8,138.8 		"/>
	</g>
	<g>
		<polygon class="st2" points="11.9,34 8.6,29.9 11.9,25.8 15.1,29.9 		"/>
		<polygon class="st3" points="11.9,25.8 11.8,25.9 11.8,34 11.9,34 15.1,29.9 		"/>
	</g>
	<g>
		<path class="st4" d="M16.3,9.6c-0.2,0.4-0.5,0.7-0.9,1.1c-0.4,0.5-0.9,0.8-1.3,0.9c-0.3,0.1-0.7,0.2-1.2,0.2
			c-0.6,0-0.9,0.2-0.9,0.6c0,0.3,0.2,0.5,0.5,0.6c0.6,0.1,1.1,0.4,1.6,0.7c0.4,0.3,0.8,0.7,1,1.1c0.2,0.4,0.3,0.8,0.3,1.2
			c0,0.6-0.1,1.2-0.4,1.8c-0.1,0.3-0.4,0.6-0.7,1.1c-0.8,1.1-1.6,1.8-2.2,2.2c-0.6,0.4-1.5,0.6-2.5,0.6c-0.6,0-1.1-0.1-1.6-0.3
			c-0.6-0.2-0.8-0.6-0.8-1.1c0-0.3,0.2-0.9,0.7-1.6c0.5-0.8,0.9-1.1,1.2-1.1c0.2,0,0.3,0.2,0.3,0.7c0,0.4,0.1,0.8,0.2,0.9
			c0.1,0.2,0.3,0.3,0.4,0.3c0.3,0.2,0.7,0.4,1,0.4c0.4,0,0.8-0.2,1.2-0.5c0.4-0.4,0.6-0.9,0.6-1.7c0-0.7-0.2-1.3-0.7-1.8
			c-0.5-0.5-1-0.8-1.7-0.9c-0.1,0-0.2,0-0.3,0C10,15,9.9,15,9.8,14.9c-0.1-0.1-0.1-0.2-0.1-0.3c0.1-0.4,0.1-0.9,0.1-1.3
			c0-0.4,0.1-0.8,0.1-1.2c0-0.2,0-0.3-0.1-0.3c-0.1,0-0.2-0.1-0.4-0.1v-0.4c0.2-0.2,0.5-0.5,0.9-0.9c0.6-0.5,1-0.7,1.2-0.7h3.5
			c0.1,0,0.3-0.1,0.6-0.2c0.2-0.1,0.4-0.2,0.4-0.2l0.2,0.1V9.6z"/>
	</g>
	<g>
		<path class="st4" d="M96,141.5c0.2-0.4,0.5-0.7,0.8-1.1c0.4-0.5,0.9-0.8,1.3-0.9c0.3-0.1,0.7-0.2,1.2-0.2c0.6,0,0.9-0.2,0.9-0.6
			c0-0.3-0.2-0.5-0.5-0.6c-0.6-0.1-1.1-0.4-1.6-0.7c-0.4-0.3-0.8-0.7-1-1.1c-0.2-0.4-0.3-0.8-0.3-1.2c0-0.6,0.1-1.2,0.4-1.8
			c0.1-0.3,0.4-0.6,0.7-1.1c0.8-1.1,1.6-1.8,2.2-2.2c0.6-0.4,1.5-0.6,2.5-0.6c0.6,0,1.1,0.1,1.6,0.3c0.6,0.2,0.8,0.6,0.8,1.1
			c0,0.3-0.3,0.9-0.8,1.6c-0.5,0.8-0.9,1.1-1.2,1.1c-0.2,0-0.3-0.2-0.3-0.7c0-0.4-0.1-0.8-0.2-0.9c-0.1-0.2-0.3-0.3-0.4-0.3
			c-0.3-0.2-0.7-0.4-1-0.4c-0.5,0-0.8,0.2-1.2,0.5c-0.4,0.4-0.6,0.9-0.6,1.7c0,0.7,0.2,1.3,0.7,1.8c0.5,0.5,1,0.8,1.7,0.9
			c0.1,0,0.2,0,0.3,0c0.2,0,0.3,0.1,0.3,0.1c0.1,0.1,0.1,0.2,0.1,0.3c-0.1,0.4-0.1,0.9-0.1,1.3c0,0.4-0.1,0.8-0.1,1.2
			c0,0.2,0,0.3,0.1,0.3c0.1,0,0.2,0.1,0.4,0.1v0.4c-0.2,0.2-0.5,0.5-0.9,0.9c-0.6,0.5-1,0.7-1.2,0.7h-3.5c-0.2,0-0.3,0.1-0.6,0.2
			c-0.2,0.1-0.3,0.2-0.4,0.2l-0.2-0.1V141.5z"/>
	</g>
	<g>
		<polygon class="st2" points="100.4,117 103.6,121.1 100.4,125.3 97.1,121.1 		"/>
		<polygon class="st3" points="100.4,117.1 100.4,117 97.1,121.1 100.4,125.3 100.4,125.2 		"/>
	</g>
</g>
</svg>
