<?xml version="1.0" encoding="utf-8"?>
<!-- Generator: Adobe Illustrator 27.8.1, SVG Export Plug-In . SVG Version: 6.00 Build 0)  -->
<svg version="1.1" id="Слой_1" xmlns="http://www.w3.org/2000/svg" xmlns:xlink="http://www.w3.org/1999/xlink" x="0px" y="0px"
	 viewBox="0 0 110 150" style="enable-background:new 0 0 110 150;" xml:space="preserve">
<style type="text/css">
	.st0{fill:#C9C9C9;}
	.st1{fill:#FFFFFF;}
	.st2{fill:#D66142;}
	.st3{opacity:0.2;fill:#616161;}
	.st4{fill:#333333;}
</style>
<g>
	<g>
		<path class="st0" d="M13.3,150c-6.3,0-11.5-5.1-11.5-11.3L1.4,11.3C1.4,5.1,6.6,0,12.9,0l84.2,0.2c6.3,0,11.5,5.1,11.5,11.4v127.1
			c0,6.2-5.1,11.3-11.4,11.3L13.3,150z"/>
	</g>
	<path class="st1" d="M14.3,149.7C8,149.7,3,144.6,3,138.4V11.3C3,5.1,8,0,14.3,0h82.9c6.3,0,11.3,5.1,11.3,11.3v127.1
		c0,6.2-5.1,11.3-11.3,11.3H14.3z"/>
	<g>
		<polygon class="st2" points="75.9,10.8 64.7,24.9 75.9,39 87.1,24.9 		"/>
		<polygon class="st3" points="75.8,10.9 75.9,10.8 87.1,24.9 75.9,39 75.8,38.9 		"/>
	</g>
	<g>
		<polygon class="st2" points="35.7,60.7 46.9,74.8 35.7,89 24.5,74.8 		"/>
		<polygon class="st3" points="35.8,60.8 35.7,60.7 24.5,74.8 35.7,89 35.8,88.9 		"/>
	</g>
	<g>
		<polygon class="st2" points="35.7,110.7 46.9,124.8 35.7,138.9 24.5,124.8 		"/>
		<polygon class="st3" points="35.8,110.8 35.7,110.7 24.5,124.8 35.7,138.9 35.8,138.8 		"/>
	</g>
	<g>
		<polygon class="st2" points="35.7,10.8 46.9,24.9 35.7,39 24.5,24.9 		"/>
		<polygon class="st3" points="35.8,10.9 35.7,10.8 24.5,24.9 35.7,39 35.8,38.9 		"/>
	</g>
	<g>
		<polygon class="st2" points="75.9,60.7 64.7,74.8 75.9,89 87.1,74.8 		"/>
		<polygon class="st3" points="75.8,60.8 75.9,60.7 87.1,74.8 75.9,89 75.8,88.9 		"/>
	</g>
	<g>
		<polygon class="st2" points="75.9,110.7 64.7,124.8 75.9,138.9 87.1,124.8 		"/>
		<polygon class="st3" points="75.8,110.8 75.9,110.7 87.1,124.8 75.9,138.9 75.8,138.8 		"/>
	</g>
	<g>
		<polygon class="st2" points="11.9,34 8.6,29.9 11.9,25.8 15.1,29.9 		"/>
		<polygon class="st3" points="11.9,25.8 11.8,25.9 11.8,34 11.9,34 15.1,29.9 		"/>
	</g>
	<g>
		<path class="st4" d="M16.2,17.3c0,0.5-0.3,1.3-0.8,2.1c-0.6,0.9-1.1,1.4-1.6,1.7c-0.4,0.2-0.8,0.3-1,0.4c-0.2,0.1-0.4,0.1-0.5,0.1
			c-0.2,0-0.3,0-0.5,0c-1.1,0-2-0.4-2.6-1.2c-0.5-0.7-0.8-1.6-0.8-2.6c0-0.7,0.1-1.5,0.4-2.3c0.3-0.9,0.6-1.6,1-2.2
			c0.6-0.9,1-1.4,1.1-1.6c0.1-0.1,0.5-0.5,1.3-1.1c0.6-0.5,1-0.8,1.2-0.9c0.2-0.1,0.3-0.1,0.5-0.1c0.2,0,0.3,0.1,0.3,0.3
			c0,0.1-0.3,0.3-0.8,0.9c-0.4,0.4-0.8,0.9-1.2,1.4c-0.2,0.2-0.4,0.6-0.6,1.1c-0.3,0.6-0.5,1.1-0.5,1.3c0,0,0,0.1,0.1,0.1
			c0,0,0.1,0.1,0.1,0.1c0.3-0.2,0.6-0.3,0.9-0.5c0.6-0.3,1.1-0.5,1.4-0.5c0.5,0,1.1,0.3,1.7,1C15.9,15.4,16.2,16.3,16.2,17.3z
			 M13.8,19.1c0-0.7-0.2-1.4-0.7-2.1c-0.5-0.7-1-1-1.5-1c-0.2,0-0.4,0-0.5,0.1c-0.2,0.1-0.2,0.2-0.2,0.4c0,0.7,0.3,1.4,0.8,2.1
			c0.6,0.8,1.2,1.1,1.9,1.1c0.1,0,0.2,0,0.2-0.1C13.8,19.5,13.8,19.3,13.8,19.1z"/>
	</g>
	<g>
		<path class="st4" d="M96.1,133.8c0-0.5,0.3-1.3,0.8-2.1c0.6-0.9,1.1-1.4,1.6-1.7c0.4-0.2,0.7-0.3,1-0.4c0.2-0.1,0.4-0.1,0.5-0.1
			c0.2,0,0.3,0,0.5,0c1.1,0,2,0.4,2.6,1.2c0.5,0.7,0.8,1.6,0.8,2.6c0,0.7-0.1,1.5-0.4,2.3c-0.3,0.9-0.6,1.6-1,2.2
			c-0.6,0.9-1,1.4-1.1,1.6c-0.1,0.1-0.5,0.5-1.3,1.1c-0.6,0.5-1,0.8-1.2,0.9c-0.2,0.1-0.3,0.1-0.5,0.1c-0.2,0-0.3-0.1-0.3-0.3
			c0-0.1,0.3-0.3,0.8-0.9c0.4-0.4,0.8-0.9,1.2-1.4c0.2-0.2,0.4-0.6,0.6-1.1c0.3-0.6,0.5-1.1,0.5-1.3c0,0,0-0.1-0.1-0.1
			c0,0-0.1-0.1-0.1-0.1c-0.3,0.1-0.6,0.3-0.9,0.5c-0.6,0.3-1.1,0.5-1.4,0.5c-0.5,0-1.1-0.3-1.7-1C96.4,135.7,96.1,134.8,96.1,133.8z
			 M98.4,132c0,0.7,0.2,1.4,0.7,2.1c0.5,0.7,1,1,1.5,1c0.2,0,0.4,0,0.5-0.1c0.2-0.1,0.2-0.2,0.2-0.4c0-0.7-0.3-1.4-0.8-2.1
			c-0.6-0.8-1.2-1.1-1.9-1.1c-0.1,0-0.2,0-0.2,0.1C98.5,131.6,98.4,131.8,98.4,132z"/>
	</g>
	<g>
		<polygon class="st2" points="100.4,117 103.6,121.2 100.4,125.3 97.1,121.2 		"/>
		<polygon class="st3" points="100.4,117.1 100.4,117 97.1,121.2 100.4,125.3 100.4,125.2 		"/>
	</g>
</g>
</svg>
