<?xml version="1.0" encoding="utf-8"?>
<!-- Generator: Adobe Illustrator 27.8.1, SVG Export Plug-In . SVG Version: 6.00 Build 0)  -->
<svg version="1.1" id="Слой_1" xmlns="http://www.w3.org/2000/svg" xmlns:xlink="http://www.w3.org/1999/xlink" x="0px" y="0px"
	 viewBox="0 0 110 150" style="enable-background:new 0 0 110 150;" xml:space="preserve">
<style type="text/css">
	.st0{fill:#C9C9C9;}
	.st1{fill:#FFFFFF;}
	.st2{fill:#D66142;}
	.st3{opacity:0.2;fill:#616161;}
	.st4{fill:#333333;}
</style>
<g>
	<g>
		<path class="st0" d="M13.3,150c-6.3,0-11.5-5-11.5-11.3L1.4,11.4C1.4,5.1,6.5,0,12.9,0l84.2,0.1c6.3,0,11.5,5.1,11.5,11.4v127.1
			c0,6.2-5.1,11.3-11.4,11.3L13.3,150z"/>
	</g>
	<path class="st1" d="M14.3,149.7C8,149.7,3,144.6,3,138.4V11.3C3,5.1,8,0,14.3,0h82.9c6.3,0,11.3,5.1,11.3,11.3v127.1
		c0,6.2-5.1,11.3-11.3,11.3H14.3z"/>
	<g>
		<polygon class="st2" points="75.9,10.8 87.1,24.9 75.9,39 64.7,24.9 		"/>
		<polygon class="st3" points="75.9,10.9 75.9,10.8 64.7,24.9 75.9,39 75.9,38.9 		"/>
	</g>
	<g>
		<polygon class="st2" points="55.1,60.7 66.3,74.8 55.1,89 43.9,74.8 		"/>
		<polygon class="st3" points="55.2,60.8 55.1,60.7 43.9,74.8 55.1,89 55.2,88.9 		"/>
	</g>
	<g>
		<polygon class="st2" points="75.9,44.1 87.1,58.2 75.9,72.3 64.7,58.2 		"/>
		<polygon class="st3" points="75.9,44.2 75.9,44.1 64.7,58.2 75.9,72.3 75.9,72.2 		"/>
	</g>
	<g>
		<polygon class="st2" points="35.7,77.4 24.5,91.5 35.7,105.6 46.9,91.5 		"/>
		<polygon class="st3" points="35.6,77.5 35.7,77.4 46.9,91.5 35.7,105.6 35.6,105.5 		"/>
	</g>
	<g>
		<polygon class="st2" points="35.7,110.7 24.5,124.8 35.7,138.9 46.9,124.8 		"/>
		<polygon class="st3" points="35.6,110.8 35.7,110.7 46.9,124.8 35.7,138.9 35.6,138.8 		"/>
	</g>
	<g>
		<polygon class="st2" points="35.7,10.8 46.9,24.9 35.7,39 24.5,24.9 		"/>
		<polygon class="st3" points="35.8,10.9 35.7,10.8 24.5,24.9 35.7,39 35.8,38.9 		"/>
	</g>
	<g>
		<polygon class="st2" points="35.7,44.1 46.9,58.2 35.7,72.3 24.5,58.2 		"/>
		<polygon class="st3" points="35.8,44.2 35.7,44.1 24.5,58.2 35.7,72.3 35.8,72.2 		"/>
	</g>
	<g>
		<polygon class="st2" points="75.9,77.4 64.7,91.5 75.9,105.6 87.1,91.5 		"/>
		<polygon class="st3" points="75.8,77.5 75.9,77.4 87.1,91.5 75.9,105.6 75.8,105.5 		"/>
	</g>
	<g>
		<polygon class="st2" points="75.9,110.7 64.7,124.8 75.9,138.9 87.1,124.8 		"/>
		<polygon class="st3" points="75.8,110.8 75.9,110.7 87.1,124.8 75.9,138.9 75.8,138.8 		"/>
	</g>
	<g>
		<polygon class="st2" points="11.9,34 8.6,29.9 11.9,25.8 15.1,29.9 		"/>
		<polygon class="st3" points="11.9,25.8 11.8,25.8 11.8,34 11.9,34 15.1,29.9 		"/>
	</g>
	<g>
		<path class="st4" d="M16.3,13.7c0,0.8-0.2,1.7-0.5,2.6c-0.4,0.9-0.7,1.6-1.1,2.1c-0.7,0.8-1.3,1.4-1.9,1.9c-1,0.9-1.8,1.3-2.4,1.3
			c-0.1,0-0.1,0-0.2-0.1c-0.1,0-0.1-0.1-0.1-0.1c0.6-0.4,1.1-0.8,1.7-1.5c0.6-0.6,1.1-1.5,1.7-2.6v-0.2c0,0-0.1,0-0.1-0.1
			c-0.4,0.2-0.8,0.4-1.2,0.5c-0.4,0.1-0.7,0.2-1,0.2c-0.6,0-1.1-0.3-1.6-0.9c-0.6-0.7-0.9-1.6-0.9-2.6c0-1,0.6-2,1.8-3.1
			c1.1-1,2-1.5,2.7-1.5c0.7,0,1.4,0.4,2,1.1C15.9,11.5,16.3,12.6,16.3,13.7z M13.8,15.2c0-1-0.3-1.8-0.9-2.4
			c-0.5-0.6-1.1-0.9-1.6-0.9c-0.1,0-0.2,0.1-0.3,0.2c0,0.2-0.1,0.3-0.1,0.5c0,0.8,0.2,1.5,0.6,2.1c0.5,0.7,1,1,1.4,1
			c0.2,0,0.4,0,0.5-0.1C13.7,15.5,13.8,15.4,13.8,15.2z"/>
	</g>
	<g>
		<path class="st4" d="M96,137.3c0-0.8,0.2-1.7,0.5-2.6c0.4-0.9,0.7-1.6,1.1-2.1c0.7-0.8,1.3-1.4,1.9-1.9c1-0.9,1.8-1.3,2.4-1.3
			c0.1,0,0.1,0,0.2,0.1c0.1,0,0.1,0.1,0.1,0.1c-0.5,0.4-1.1,0.8-1.7,1.5c-0.6,0.6-1.1,1.5-1.7,2.6v0.2c0,0,0.1,0,0.1,0.1
			c0.4-0.2,0.8-0.4,1.2-0.5c0.4-0.1,0.7-0.2,1-0.2c0.6,0,1.1,0.3,1.6,0.9c0.6,0.7,0.9,1.6,0.9,2.6c0,1-0.6,2-1.8,3.1
			c-1.1,1-2,1.5-2.7,1.5c-0.7,0-1.4-0.4-2-1.1C96.4,139.5,96,138.5,96,137.3z M98.5,135.9c0,1,0.3,1.8,0.9,2.4
			c0.5,0.6,1.1,0.9,1.6,0.9c0.1,0,0.2-0.1,0.3-0.2c0-0.2,0.1-0.3,0.1-0.5c0-0.8-0.2-1.5-0.6-2.1c-0.5-0.7-1-1-1.4-1
			c-0.2,0-0.4,0-0.5,0.1C98.6,135.5,98.5,135.7,98.5,135.9z"/>
	</g>
	<g>
		<polygon class="st2" points="100.4,117 103.6,121.2 100.4,125.3 97.1,121.2 		"/>
		<polygon class="st3" points="100.4,117.1 100.4,117 97.1,121.2 100.4,125.3 100.4,125.2 		"/>
	</g>
</g>
</svg>
