<?xml version="1.0" encoding="utf-8"?>
<!-- Generator: Adobe Illustrator 27.8.1, SVG Export Plug-In . SVG Version: 6.00 Build 0)  -->
<svg version="1.1" id="Слой_1" xmlns="http://www.w3.org/2000/svg" xmlns:xlink="http://www.w3.org/1999/xlink" x="0px" y="0px"
	 viewBox="0 0 110 150" style="enable-background:new 0 0 110 150;" xml:space="preserve">
<style type="text/css">
	.st0{fill:#C9C9C9;}
	.st1{fill:#FFFFFF;}
	.st2{clip-path:url(#SVGID_00000174592076798089765520000000040396002400171708_);}
	.st3{fill:#4CA2B5;}
	.st4{fill:#3282AB;}
	.st5{fill:#3C88A5;}
	.st6{fill:#3C84AD;}
	.st7{fill:#3870A7;}
	.st8{fill:#3C7AAD;}
	.st9{fill:#28A2B7;}
	.st10{fill:#3E76A5;}
	.st11{fill:#34729B;}
	.st12{fill:#3E9EA5;}
	.st13{fill:#1E9097;}
	.st14{fill:#3680B3;}
	.st15{fill:#1E74BB;}
	.st16{fill:#327CB7;}
	.st17{fill:#289E9B;}
	.st18{fill:#4C7AA3;}
	.st19{fill:#2C9AA3;}
	.st20{fill:#4AA293;}
	.st21{fill:#329E9B;}
	.st22{fill:#2C8EB1;}
	.st23{fill:#387291;}
	.st24{fill:#40A295;}
	.st25{fill:#2286BD;}
	.st26{fill:#3C9E97;}
	.st27{fill:#368C9D;}
	.st28{fill:#388E97;}
	.st29{fill:#1E84A3;}
	.st30{fill:#38909D;}
	.st31{fill:#3C74B3;}
	.st32{fill:#32989D;}
	.st33{fill:#42A0B1;}
	.st34{fill:#367A9F;}
	.st35{fill:#3C76BB;}
	.st36{fill:#288CA3;}
	.st37{fill:#4296B3;}
	.st38{fill:#3A92B5;}
	.st39{fill:#4E84B3;}
	.st40{fill:#3098AB;}
	.st41{fill:#4E74BD;}
	.st42{fill:#2E98B7;}
	.st43{fill:#309ABD;}
	.st44{fill:#267AA5;}
	.st45{fill:#3E849D;}
	.st46{fill:#2E7AA7;}
	.st47{fill:#2298C3;}
	.st48{fill:#387A9D;}
	.st49{fill:#249CB3;}
	.st50{fill:#287E9D;}
	.st51{fill:#529CAD;}
	.st52{fill:#3AA09B;}
	.st53{fill:#24909F;}
	.st54{fill:#40909D;}
	.st55{fill:#4AA29D;}
	.st56{fill:#3A9ABF;}
	.st57{fill:#5080BB;}
	.st58{fill:#328EBF;}
	.st59{fill:#4A9A93;}
	.st60{fill:#3A9AB1;}
	.st61{fill:#38809B;}
	.st62{fill:#4888BD;}
	.st63{fill:#40729F;}
	.st64{fill:#1E7EBD;}
	.st65{fill:#2682A7;}
	.st66{fill:#2294B3;}
	.st67{fill:#468AC5;}
	.st68{fill:#4678B7;}
	.st69{fill:#4C84A1;}
	.st70{fill:#24A093;}
	.st71{fill:#3C86A7;}
	.st72{fill:#229AA1;}
	.st73{fill:#367E91;}
	.st74{fill:#467EAD;}
	.st75{fill:#42869D;}
	.st76{fill:#3276A3;}
	.st77{fill:#4478C3;}
	.st78{fill:#429AA7;}
	.st79{fill:#2898AD;}
	.st80{fill:#408AA9;}
	.st81{fill:#3C8CB5;}
	.st82{fill:#2A8EAD;}
	.st83{fill:#2672BF;}
	.st84{fill:#2A9A91;}
	.st85{fill:#4272B9;}
	.st86{fill:#2E7C9B;}
	.st87{fill:#3890A5;}
	.st88{fill:#3E80AB;}
	.st89{fill:#2074A3;}
	.st90{fill:#347EA1;}
	.st91{fill:#32A0BF;}
	.st92{fill:#36A0A9;}
	.st93{fill:#3A72BF;}
	.st94{fill:#3294A5;}
	.st95{fill:#247CAD;}
	.st96{fill:#1E96BD;}
	.st97{fill:#487EB9;}
	.st98{fill:#3094B7;}
	.st99{fill:#347AA5;}
	.st100{fill:#329295;}
	.st101{fill:#3C7CBD;}
	.st102{fill:#2A8EAB;}
	.st103{fill:#42709F;}
	.st104{fill:#4A8EB1;}
	.st105{fill:#3A8697;}
	.st106{fill:#2A94B9;}
	.st107{fill:#3680B1;}
	.st108{fill:#2A82B1;}
	.st109{fill:#369C99;}
	.st110{fill:#4882B5;}
	.st111{fill:#4276AF;}
	.st112{fill:#2684C3;}
	.st113{fill:#249EA5;}
	.st114{fill:#3670A3;}
	.st115{fill:#2686C1;}
	.st116{fill:#248297;}
	.st117{fill:#2872B9;}
	.st118{fill:#3E8C95;}
	.st119{fill:#509299;}
	.st120{fill:#1E9C9B;}
	.st121{fill:#2A7CB9;}
	.st122{fill:#30A29D;}
	.st123{fill:#2C96B7;}
	.st124{fill:#4C7EC3;}
	.st125{fill:#3C78C1;}
	.st126{fill:#509CA7;}
	.st127{fill:#3090C3;}
	.st128{fill:#4A8EC3;}
	.st129{fill:#4AA299;}
	.st130{fill:#4E90B1;}
	.st131{fill:#3876A5;}
	.st132{fill:#3084BB;}
	.st133{fill:#5294AF;}
	.st134{fill:#42A2B7;}
	.st135{fill:#3692AB;}
	.st136{fill:#5298C3;}
	.st137{fill:#4C72BD;}
	.st138{fill:#348299;}
	.st139{fill:#4A7EC3;}
	.st140{fill:#4E9493;}
	.st141{fill:#3286B1;}
	.st142{fill:#287EBD;}
	.st143{fill:#44A295;}
	.st144{fill:#3878A1;}
	.st145{fill:#208A99;}
	.st146{fill:#1E9EA9;}
	.st147{fill:#2A76B9;}
	.st148{fill:#3AA295;}
	.st149{fill:#3286C1;}
	.st150{fill:#4A8497;}
	.st151{fill:#46989B;}
	.st152{fill:#4496C1;}
	.st153{fill:#468AB9;}
	.st154{fill:#289AA3;}
	.st155{fill:#509493;}
	.st156{fill:#2288B7;}
	.st157{fill:#4C9AA9;}
	.st158{fill:#4AA4A3;}
	.st159{fill:#4E98B1;}
	.st160{fill:#3C989D;}
	.st161{fill:#4C7EA1;}
	.st162{fill:#4A9CBD;}
	.st163{fill:#44A2A3;}
	.st164{fill:#3278B9;}
	.st165{fill:#24A0BF;}
	.st166{fill:#4886AB;}
	.st167{fill:#369893;}
	.st168{fill:#3E92B5;}
	.st169{fill:#1E9CAB;}
	.st170{fill:#4A78AB;}
	.st171{fill:#4C78C3;}
	.st172{fill:#2A8499;}
	.st173{fill:#269CA1;}
	.st174{fill:#2C969D;}
	.st175{fill:#4682A1;}
	.st176{fill:#36889D;}
	.st177{fill:#367693;}
	.st178{fill:#2098B5;}
	.st179{fill:#4C7699;}
	.st180{fill:#3288B7;}
	.st181{fill:#527095;}
</style>
<g>
	<path class="st0" d="M13.2,150c-6.3,0-11.5-5-11.5-11.3L1.4,11.4C1.3,5.1,6.5,0,12.9,0L97,0.2c6.3,0,11.5,5.1,11.5,11.4v127.1
		c0,6.2-5.1,11.3-11.5,11.3L13.2,150z"/>
	<path class="st1" d="M14.4,149.8c-6.3,0-11.3-5.1-11.3-11.3V11.5C3,5.2,8.1,0.2,14.4,0.2h82.9c6.3,0,11.3,5.1,11.3,11.3v127.1
		c0,6.2-5.1,11.3-11.3,11.3H14.4z"/>
	<g>
		<defs>
			<path id="SVGID_1_" d="M14.4,143.6c-2.8,0-5.1-2.3-5.1-5V11.5c0-2.8,2.3-5,5.1-5h82.9c2.8,0,5.1,2.3,5.1,5v127.1
				c0,2.8-2.3,5-5.1,5H14.4z"/>
		</defs>
		<clipPath id="SVGID_00000118367230573901261090000005471435263486982591_">
			<use xlink:href="#SVGID_1_"  style="overflow:visible;"/>
		</clipPath>
		<g style="clip-path:url(#SVGID_00000118367230573901261090000005471435263486982591_);">
			<polygon class="st3" points="116.2,-8.3 104.2,-8.3 104.2,4 116.2,-8.1 			"/>
			<polygon class="st4" points="116.2,86.7 104.8,98.1 116.2,98.1 			"/>
			<polygon class="st5" points="116.2,-6.3 104.2,5.8 104.2,5.8 116.2,5.8 			"/>
			<polygon class="st6" points="88.5,37.8 88.5,50.6 101.3,37.8 			"/>
			<polygon class="st7" points="116.2,71.2 104.7,82.7 116.2,82.7 			"/>
			<polygon class="st8" points="88.5,84 88.5,97.1 101.6,84 			"/>
			<polygon class="st9" points="88.5,53.2 88.5,66.1 101.4,53.2 			"/>
			<polygon class="st10" points="102.9,98.1 102.9,84.5 89.4,98.1 			"/>
			<polygon class="st11" points="88.5,99.4 88.5,112.6 101.7,99.4 			"/>
			<polygon class="st12" points="88.5,114.7 88.5,128.1 101.8,114.7 			"/>
			<polygon class="st13" points="102.9,113.4 102.9,100 89.5,113.4 			"/>
			<polygon class="st14" points="102.9,7.1 102.9,7.1 88.8,21.2 102.5,21.2 102.9,20.7 			"/>
			<polygon class="st15" points="102.9,-8.3 102.8,-8.3 88.7,5.8 102.4,5.8 102.9,5.3 			"/>
			<polygon class="st16" points="102.9,22.6 88.9,36.5 102.6,36.5 102.9,36.2 			"/>
			<polygon class="st17" points="88.5,22.5 88.5,35.2 101.2,22.5 			"/>
			<polygon class="st18" points="88.5,7.1 88.5,19.7 101.1,7.1 			"/>
			<polygon class="st19" points="88.5,-8.3 88.5,4.2 101,-8.3 			"/>
			<polygon class="st20" points="102.9,128.8 102.9,115.5 89.6,128.8 			"/>
			<polygon class="st21" points="87.2,22.8 73.4,36.5 87.1,36.5 87.2,36.4 			"/>
			<polygon class="st22" points="88.5,130.1 88.5,143.6 102,130.1 			"/>
			<polygon class="st23" points="87.2,-8.2 73.2,5.8 86.9,5.8 87.2,5.5 			"/>
			<polygon class="st24" points="87.2,7.3 73.3,21.2 87,21.2 87.2,21 			"/>
			<polygon class="st25" points="87.2,51.9 87.2,38.3 73.5,51.9 			"/>
			<polygon class="st26" points="102.9,159.6 102.9,146.5 89.8,159.6 			"/>
			<polygon class="st27" points="88.5,145.5 88.5,159.1 102.1,145.5 			"/>
			<polygon class="st28" points="102.9,144.2 102.9,131 89.7,144.2 			"/>
			<polygon class="st29" points="102,161 102.2,160.9 88.5,160.9 88.5,160.9 88.5,161 			"/>
			<polygon class="st30" points="88.5,68.6 88.5,81.6 101.5,68.6 			"/>
			<polygon class="st31" points="116.2,99.4 104.2,99.4 104.2,112.4 116.2,100.3 			"/>
			<polygon class="st32" points="116.2,84 104.2,84 104.2,96.9 116.2,84.9 			"/>
			<polygon class="st33" points="116.2,53.2 104.2,53.2 104.2,65.9 116.2,53.9 			"/>
			<polygon class="st34" points="116.2,68.6 104.2,68.6 104.2,81.4 116.2,69.4 			"/>
			<polygon class="st35" points="116.2,114.7 104.2,114.7 104.2,127.9 116.2,115.8 			"/>
			<polygon class="st36" points="116.2,130.1 104.2,130.1 104.2,143.4 116.2,131.3 			"/>
			<polygon class="st37" points="116.2,55.7 104.6,67.3 116.2,67.3 			"/>
			<polygon class="st38" points="116.2,37.8 104.2,37.8 104.2,50.4 116.2,38.4 			"/>
			<polygon class="st39" points="116.2,145.5 104.2,145.5 104.2,158.8 116.2,146.8 			"/>
			<polygon class="st40" points="116.2,24.7 104.4,36.5 116.2,36.5 			"/>
			<polygon class="st41" points="116.2,40.2 104.5,51.9 116.2,51.9 			"/>
			<polygon class="st42" points="116.2,22.5 104.2,22.5 104.2,34.9 116.2,22.9 			"/>
			<polygon class="st43" points="116.2,7.1 104.2,7.1 104.2,19.5 116.2,7.4 			"/>
			<polygon class="st44" points="116.2,9.2 104.3,21.2 116.2,21.2 			"/>
			<polygon class="st45" points="102.9,53.5 89.1,67.3 102.8,67.3 102.9,67.2 			"/>
			<polygon class="st46" points="102.9,82.7 102.9,69 89.3,82.7 			"/>
			<rect x="104.2" y="160.9" class="st47" width="12" height="0.1"/>
			<polygon class="st48" points="102.9,38.1 89,51.9 102.7,51.9 102.9,51.7 			"/>
			<polygon class="st49" points="40.1,82.7 40.1,69.9 27.3,82.7 			"/>
			<polygon class="st50" points="8.7,5.8 8.7,-7.1 -4.2,5.8 			"/>
			<polygon class="st51" points="-5.6,-8.3 -5.7,-8.2 -5.7,5.5 8,-8.3 			"/>
			<polygon class="st52" points="-5.5,7.1 -5.7,7.3 -5.7,21 8.2,7.1 			"/>
			<polygon class="st53" points="8.7,84 8.7,84 -5,84 -5.7,84.7 -5.7,98.1 -5.4,98.1 			"/>
			<polygon class="st54" points="8.7,82.7 8.7,70.3 -3.7,82.7 			"/>
			<polygon class="st55" points="8.7,85.8 -3.6,98.1 8.7,98.1 			"/>
			<polygon class="st56" points="8.7,99.5 8.7,99.4 -4.9,99.4 -5.7,100.2 -5.7,113.4 -5.3,113.4 			"/>
			<polygon class="st57" points="24.4,161 24.4,160.9 11.1,160.9 10.9,161 			"/>
			<polygon class="st58" points="8.7,101.3 -3.5,113.4 8.7,113.4 			"/>
			<polygon class="st59" points="8.7,115 8.7,114.7 -4.8,114.7 -5.7,115.7 -5.7,128.8 -5.2,128.8 			"/>
			<polygon class="st60" points="8.7,130.5 8.7,130.1 -4.6,130.1 -5.7,131.2 -5.7,144.2 -5.1,144.2 			"/>
			<polygon class="st61" points="8.7,116.8 -3.4,128.8 8.7,128.8 			"/>
			<polygon class="st62" points="8.5,53.2 -5.2,53.2 -5.7,53.8 -5.7,67.3 -5.6,67.3 			"/>
			<polygon class="st63" points="8.6,68.6 -5.1,68.6 -5.7,69.3 -5.7,82.7 -5.5,82.7 			"/>
			<polygon class="st64" points="-5.4,22.5 -5.7,22.8 -5.7,36.5 8.3,22.5 			"/>
			<polygon class="st65" points="8.4,37.8 -5.3,37.8 -5.7,38.3 -5.7,51.9 -5.7,51.9 			"/>
			<polygon class="st66" points="8.7,36.5 8.7,23.9 -4,36.5 			"/>
			<polygon class="st67" points="8.7,67.3 8.7,54.8 -3.8,67.3 			"/>
			<polygon class="st68" points="8.7,21.2 8.7,8.4 -4.1,21.2 			"/>
			<polygon class="st69" points="8.7,51.9 8.7,39.4 -3.9,51.9 			"/>
			<polygon class="st70" points="8.7,132.3 -3.2,144.2 8.7,144.2 			"/>
			<polygon class="st71" points="10,-8.3 10,5.3 23.5,-8.3 			"/>
			<polygon class="st72" points="24.4,5.8 24.4,-7.3 11.3,5.8 			"/>
			<polygon class="st73" points="10,7.1 10,7.1 10,20.8 23.6,7.1 			"/>
			<polygon class="st74" points="10.1,22.5 10,22.6 10,36.2 23.7,22.5 			"/>
			<polygon class="st75" points="10.2,37.8 10,38.1 10,51.7 23.9,37.8 			"/>
			<polygon class="st76" points="24.4,116.6 12.1,128.8 24.4,128.8 			"/>
			<polygon class="st77" points="24.4,114.8 24.4,114.7 10.7,114.7 10,115.5 10,128.8 10.3,128.8 			"/>
			<polygon class="st78" points="24.4,113.4 24.4,101.1 12,113.4 			"/>
			<polygon class="st79" points="24.4,132.1 12.2,144.2 24.4,144.2 			"/>
			<polygon class="st80" points="24.4,130.3 24.4,130.1 10.8,130.1 10,131 10,144.2 10.4,144.2 			"/>
			<polygon class="st81" points="24.4,36.5 24.4,23.6 11.5,36.5 			"/>
			<polygon class="st82" points="24.3,99.4 10.6,99.4 10,100 10,113.4 10.2,113.4 			"/>
			<polygon class="st83" points="24.4,145.7 24.4,145.5 11,145.5 10,146.5 10,159.6 10.5,159.6 			"/>
			<polygon class="st84" points="10.3,53.2 10,53.6 10,67.2 24,53.2 			"/>
			<polygon class="st85" points="24.4,51.9 24.4,39.1 11.6,51.9 			"/>
			<polygon class="st86" points="24.4,147.6 12.4,159.6 24.4,159.6 			"/>
			<polygon class="st87" points="24.4,82.7 24.4,70.1 11.8,82.7 			"/>
			<polygon class="st88" points="24.2,84 10.5,84 10,84.5 10,98.1 10.1,98.1 			"/>
			<polygon class="st89" points="24.4,67.3 24.4,54.6 11.7,67.3 			"/>
			<polygon class="st90" points="24.4,98.1 24.4,85.6 11.9,98.1 			"/>
			<polygon class="st91" points="24.4,21.2 24.4,8.2 11.4,21.2 			"/>
			<polygon class="st92" points="8.7,145.9 8.7,145.5 -4.5,145.5 -5.7,146.7 -5.7,159.6 -5,159.6 			"/>
			<polygon class="st93" points="8.7,161 8.7,160.9 -4.4,160.9 -4.6,161 			"/>
			<polygon class="st94" points="8.7,147.8 -3.1,159.6 8.7,159.6 			"/>
			<polygon class="st95" points="24.1,68.6 10.4,68.6 10,69 10,82.7 10,82.7 			"/>
			<polygon class="st96" points="71.5,51.9 71.5,38.5 58.1,51.9 			"/>
			<polygon class="st97" points="57.1,53.2 57.1,66.6 70.4,53.2 			"/>
			<polygon class="st98" points="57.1,37.8 57.1,51.1 70.3,37.8 			"/>
			<polygon class="st99" points="71.5,36.5 71.5,23 58,36.5 			"/>
			<polygon class="st100" points="57.1,22.5 57.1,35.6 70.2,22.5 			"/>
			<polygon class="st101" points="71.5,82.7 71.5,69.5 58.3,82.7 			"/>
			<polygon class="st102" points="71.5,67.3 71.5,54 58.2,67.3 			"/>
			<polygon class="st103" points="57.1,68.6 57.1,82.1 70.5,68.6 			"/>
			<polygon class="st104" points="57.1,84 57.1,97.5 70.7,84 			"/>
			<polygon class="st105" points="57.1,-8.3 57.1,4.6 70,-8.3 			"/>
			<polygon class="st106" points="57.1,7.1 57.1,20.1 70.1,7.1 			"/>
			<polygon class="st107" points="71.5,159.6 71.5,146.9 58.8,159.6 			"/>
			<polygon class="st108" points="71.1,161 71.2,160.9 57.5,160.9 57.4,161 			"/>
			<polygon class="st109" points="57.3,130.1 57.1,130.3 57.1,144 71,130.1 			"/>
			<polygon class="st110" points="71.5,113.4 71.5,100.4 58.5,113.4 			"/>
			<polygon class="st111" points="57.1,99.4 57.1,99.4 57.1,113 70.8,99.4 			"/>
			<polygon class="st112" points="57.4,145.5 57.1,145.8 57.1,159.5 71.1,145.5 			"/>
			<polygon class="st113" points="57.2,114.7 57.1,114.9 57.1,128.5 70.9,114.7 			"/>
			<polygon class="st114" points="71.5,128.8 71.5,115.9 58.6,128.8 			"/>
			<polygon class="st115" points="71.5,144.2 71.5,131.4 58.7,144.2 			"/>
			<polygon class="st24" points="87.2,67.3 87.2,53.8 73.7,67.3 			"/>
			<polygon class="st116" points="72.8,68.6 72.8,81.8 86,68.6 			"/>
			<polygon class="st117" points="72.8,37.8 72.8,50.9 85.8,37.8 			"/>
			<polygon class="st118" points="87.2,82.7 87.2,69.2 73.8,82.7 			"/>
			<polygon class="st119" points="72.8,53.2 72.8,66.3 85.9,53.2 			"/>
			<polygon class="st120" points="72.8,99.4 72.8,112.8 86.3,99.4 			"/>
			<polygon class="st121" points="87.2,98.1 87.2,84.7 73.9,98.1 			"/>
			<polygon class="st122" points="72.8,84 72.8,97.3 86.1,84 			"/>
			<polygon class="st123" points="72.8,22.5 72.8,35.4 85.7,22.5 			"/>
			<polygon class="st124" points="87.2,113.4 87.2,100.2 74,113.4 			"/>
			<polygon class="st125" points="72.8,7.1 72.8,19.9 85.6,7.1 			"/>
			<polygon class="st126" points="72.8,-8.3 72.8,4.4 85.5,-8.3 			"/>
			<polygon class="st127" points="71.5,21.2 71.5,7.5 57.8,21.2 			"/>
			<polygon class="st128" points="71.5,-8 57.7,5.8 71.4,5.8 71.5,5.7 			"/>
			<polygon class="st129" points="72.8,114.7 72.8,128.3 86.4,114.7 			"/>
			<polygon class="st130" points="87.2,144.2 87.2,131.2 74.2,144.2 			"/>
			<polygon class="st131" points="72.8,130.1 72.8,130.1 72.8,143.8 86.5,130.1 			"/>
			<polygon class="st132" points="87.2,128.8 87.2,115.7 74.1,128.8 			"/>
			<polygon class="st133" points="72.9,145.5 72.8,145.6 72.8,159.3 86.6,145.5 			"/>
			<polygon class="st134" points="86.6,161 86.7,160.9 73,160.9 72.9,161 			"/>
			<polygon class="st135" points="87.2,159.6 87.2,146.7 74.3,159.6 			"/>
			<polygon class="st136" points="71.5,98.1 71.5,84.9 58.4,98.1 			"/>
			<polygon class="st137" points="25.7,-8.3 25.7,5.1 39,-8.3 			"/>
			<polygon class="st138" points="40.1,5.8 40.1,-7.5 26.8,5.8 			"/>
			<polygon class="st139" points="25.7,7.1 25.7,20.5 39.1,7.1 			"/>
			<polygon class="st140" points="40.1,36.5 40.1,23.4 27,36.5 			"/>
			<polygon class="st141" points="40.1,21.2 40.1,7.9 26.9,21.2 			"/>
			<polygon class="st142" points="25.7,22.5 25.7,36 39.2,22.5 			"/>
			<polygon class="st143" points="25.7,37.8 25.7,37.9 25.7,51.5 39.4,37.8 			"/>
			<polygon class="st144" points="40.1,113.4 40.1,100.9 27.5,113.4 			"/>
			<polygon class="st145" points="40,130.1 26.3,130.1 25.7,130.8 25.7,144.2 25.9,144.2 			"/>
			<polygon class="st146" points="40.1,128.8 40.1,116.4 27.6,128.8 			"/>
			<polygon class="st147" points="40.1,51.9 40.1,38.9 27.1,51.9 			"/>
			<polygon class="st148" points="39.9,114.7 26.2,114.7 25.7,115.3 25.7,128.8 25.8,128.8 			"/>
			<polygon class="st149" points="40.1,145.5 40.1,145.5 26.4,145.5 25.7,146.3 25.7,159.6 26,159.6 			"/>
			<polygon class="st150" points="40.1,161 40.1,161 40.1,160.9 26.5,160.9 26.4,161 			"/>
			<polygon class="st151" points="40.1,147.3 27.8,159.6 40.1,159.6 			"/>
			<polygon class="st152" points="40.1,144.2 40.1,131.9 27.7,144.2 			"/>
			<polygon class="st153" points="40.1,67.3 40.1,54.4 27.2,67.3 			"/>
			<polygon class="st154" points="25.8,53.2 25.7,53.3 25.7,67 39.5,53.2 			"/>
			<polygon class="st155" points="25.9,68.6 25.7,68.8 25.7,82.5 39.6,68.6 			"/>
			<polygon class="st156" points="39.8,99.4 26.1,99.4 25.7,99.8 25.7,113.4 25.7,113.4 			"/>
			<polygon class="st157" points="40.1,98.1 40.1,85.4 27.4,98.1 			"/>
			<polygon class="st158" points="26,84 25.7,84.3 25.7,98 39.7,84 			"/>
			<polygon class="st159" points="55.8,36.5 55.8,23.2 42.5,36.5 			"/>
			<polygon class="st160" points="41.4,37.8 41.4,51.3 54.8,37.8 			"/>
			<polygon class="st161" points="41.4,22.5 41.4,35.8 54.7,22.5 			"/>
			<polygon class="st162" points="41.4,68.6 41.4,68.6 41.4,82.3 55.1,68.6 			"/>
			<polygon class="st163" points="55.8,67.3 55.8,54.2 42.7,67.3 			"/>
			<polygon class="st164" points="41.4,53.2 41.4,66.8 54.9,53.2 			"/>
			<polygon class="st165" points="55.8,51.9 55.8,38.7 42.6,51.9 			"/>
			<polygon class="st166" points="41.4,-8.3 41.4,4.8 54.5,-8.3 			"/>
			<polygon class="st167" points="55.8,21.2 55.8,7.7 42.4,21.2 			"/>
			<polygon class="st168" points="41.4,7.1 41.4,20.3 54.6,7.1 			"/>
			<polygon class="st169" points="55.8,5.8 55.8,-7.8 42.2,5.8 			"/>
			<polygon class="st170" points="55.8,159.6 55.8,147.1 43.3,159.6 			"/>
			<polygon class="st171" points="55.6,145.5 41.9,145.5 41.4,146.1 41.4,159.6 41.5,159.6 			"/>
			<polygon class="st172" points="55.8,144.2 55.8,131.6 43.2,144.2 			"/>
			<polygon class="st173" points="55.5,130.1 41.8,130.1 41.4,130.6 41.4,144.2 41.4,144.2 			"/>
			<polygon class="st174" points="55.6,161 55.7,160.9 42,160.9 41.9,161 			"/>
			<polygon class="st175" points="55.8,113.4 55.8,100.7 43,113.4 			"/>
			<polygon class="st176" points="55.8,98.1 55.8,85.2 42.9,98.1 			"/>
			<polygon class="st177" points="55.8,128.8 55.8,116.1 43.1,128.8 			"/>
			<polygon class="st178" points="41.5,84 41.4,84.1 41.4,97.8 55.2,84 			"/>
			<polygon class="st179" points="41.6,99.4 41.4,99.6 41.4,113.3 55.3,99.4 			"/>
			<polygon class="st180" points="41.7,114.7 41.4,115.1 41.4,128.7 55.4,114.7 			"/>
			<polygon class="st181" points="55.8,82.7 55.8,69.7 42.8,82.7 			"/>
			<path class="st1" d="M-4.6,161l0.1-0.1H8.7v0.1h2.2l0.1-0.1h13.3v0.1h2l0.1-0.1h13.5v0.1l0,0h1.8l0.1-0.1h13.7l-0.1,0.1h1.8
				l0.1-0.1h13.7l-0.1,0.1h1.8l0.1-0.1h13.7l-0.1,0.1h1.9v-0.1l0,0h13.7L102,161h2.2v-0.1h12v-1.3h-11l11-11v-1.8l-12,12v-13.4h12
				v-1.3h-11.1l11.1-11.1v-1.8l-12,12v-13.2h12v-1.3h-11.2l11.2-11.2v-1.8l-12,12v-13.1h12v-1.3H105l11.3-11.3v-1.8l-12,12v-13h12
				v-1.3h-11.4l11.4-11.4v-1.8l-12,12V84h12v-1.3h-11.5l11.5-11.5v-1.8l-12,12V68.6h12v-1.3h-11.6l11.6-11.6v-1.8l-12,12V53.2h12
				v-1.3h-11.7l11.7-11.7v-1.8l-12,12V37.8h12v-1.3h-11.8l11.8-11.8v-1.8l-12,12V22.5h12v-1.3h-11.9l11.9-11.9V7.4l-12,12V7.1h12
				V5.8h-12v0l12-12v-1.8l-12,12V-8.3h12v-1.2H-7V161H-4.6z M102.9,159.6H89.8l13.1-13.1V159.6z M102.9,144.2H89.7l13.2-13.2V144.2z
				 M102.9,128.8H89.6l13.3-13.3V128.8z M102.9,113.4H89.5l13.4-13.4V113.4z M102.9,98.1H89.4l13.5-13.6V98.1z M102.9,82.7H89.3
				L102.9,69V82.7z M102.9,67.2L102.9,67.2l-13.8,0.1l13.8-13.8V67.2z M102.9,51.7l-0.2,0.2H89l13.9-13.9V51.7z M102.9,36.2
				l-0.3,0.3H88.9l14-14V36.2z M102.9,20.7l-0.4,0.4H88.8l14.1-14.1V20.7z M102.9-8.3V5.3l-0.5,0.5H88.7l14.1-14.1H102.9z M88.5-8.3
				H101L88.5,4.2V-8.3z M88.5,7.1h12.6L88.5,19.7V7.1z M88.5,22.5h12.7L88.5,35.2V22.5z M88.5,37.8h12.8L88.5,50.6V37.8z M88.5,53.2
				h12.9L88.5,66.1V53.2z M88.5,68.6h13l-13,13V68.6z M88.5,84h13.1L88.5,97.1V84z M88.5,99.4h13.2l-13.2,13.2V99.4z M88.5,114.7
				h13.4l-13.4,13.3V114.7z M88.5,130.1H102l-13.5,13.5V130.1z M88.5,145.5h13.6l-13.6,13.6V145.5z M8.7,159.6H-3.1l11.8-11.8V159.6
				z M8.7,144.2H-3.2l11.9-11.9V144.2z M8.7,128.8h-12l12-12V128.8z M8.7,113.4H-3.5l12.1-12.1V113.4z M8.7,98.1H-3.6L8.7,85.8V98.1
				z M8.7,82.7H-3.7L8.7,70.3V82.7z M8.7,67.3H-3.8L8.7,54.8V67.3z M8.7,51.9H-3.9L8.7,39.4V51.9z M8.7,36.5H-4L8.7,23.9V36.5z
				 M8.7,21.2H-4.1L8.7,8.4V21.2z M24.4,159.6h-12l12-12V159.6z M24.4,144.2H12.2l12.1-12.1V144.2z M24.4,128.8H12.1l12.2-12.2
				V128.8z M24.4,113.4H12l12.3-12.4V113.4z M24.4,98.1H11.9l12.5-12.5V98.1z M24.4,82.7H11.8l12.6-12.6V82.7z M24.4,67.3H11.7
				l12.7-12.7V67.3z M24.4,51.9H11.6l12.8-12.8V51.9z M24.4,36.5H11.5l12.9-12.9V36.5z M24.4,21.2h-13l13-13V21.2z M40.1,159.6H27.8
				l12.2-12.2V159.6z M40.1,144.2H27.7l12.3-12.4V144.2z M40.1,128.8H27.6l12.5-12.5V128.8z M40.1,113.4H27.5l12.6-12.6V113.4z
				 M40.1,98.1H27.4l12.7-12.7V98.1z M40.1,82.7H27.3l12.8-12.8V82.7z M40.1,67.3H27.2l12.9-12.9V67.3z M40.1,51.9h-13l13-13V51.9z
				 M40.1,36.5H27l13.1-13.1V36.5z M40.1,21.2H26.9L40.1,7.9V21.2z M55.8,159.6H43.3l12.5-12.5V159.6z M55.8,144.2H43.2l12.6-12.6
				V144.2z M55.8,128.8H43.1l12.7-12.7V128.8z M55.8,113.4H43l12.8-12.8V113.4z M55.8,98.1H42.9l12.9-12.9V98.1z M55.8,82.7h-13
				l13-13V82.7z M55.8,67.3H42.7l13.1-13.1V67.3z M55.8,51.9H42.6l13.2-13.2V51.9z M55.8,36.5H42.5l13.3-13.3V36.5z M55.8,21.2H42.4
				L55.8,7.7V21.2z M71.5,159.6H58.8l12.7-12.7V159.6z M71.5,144.2H58.7l12.8-12.8V144.2z M71.5,128.8H58.6l12.9-12.9V128.8z
				 M71.5,113.4h-13l13-13V113.4z M71.5,98.1H58.4l13.1-13.1V98.1z M71.5,82.7H58.3l13.2-13.2V82.7z M71.5,67.3H58.2L71.5,54V67.3z
				 M71.5,51.9H58.1l13.4-13.4V51.9z M71.5,36.5H58L71.5,23V36.5z M71.5,21.2H57.8L71.5,7.5V21.2z M87.2,159.6H74.3l12.9-12.9V159.6
				z M87.2,144.2h-13l13-13V144.2z M87.2,128.8H74.1l13.1-13.1V128.8z M87.2,113.4H74l13.2-13.2V113.4z M87.2,98.1H73.9l13.3-13.3
				V98.1z M87.2,82.7H73.8l13.4-13.4V82.7z M87.2,67.3H73.7l13.5-13.5V67.3z M87.2,51.9H73.5l13.7-13.7V51.9z M87.2,36.4L87.2,36.4
				l-13.8,0.1l13.8-13.8V36.4z M87.2,21L87,21.2H73.3L87.2,7.3V21z M87.2,5.5l-0.3,0.3H73.2l14-14V5.5z M72.8-8.3h12.7L72.8,4.4
				V-8.3z M72.8,7.1h12.8L72.8,19.9V7.1z M72.8,22.5h12.9L72.8,35.4V22.5z M72.8,37.8h13l-13,13V37.8z M72.8,53.2h13.1L72.8,66.3
				V53.2z M72.8,68.6H86L72.8,81.8V68.6z M72.8,84h13.4L72.8,97.3V84z M72.8,99.4h13.5l-13.5,13.5V99.4z M72.8,114.7h13.6
				l-13.6,13.6V114.7z M72.8,130.1L72.8,130.1l13.7,0l-13.7,13.7V130.1z M72.8,145.6l0.1-0.1h13.7l-13.8,13.8V145.6z M71.5,5.7
				l-0.1,0.1H57.7L71.5-8V5.7z M57.1-8.3H70L57.1,4.6V-8.3z M57.1,7.1h13l-13,13V7.1z M57.1,22.5h13.1L57.1,35.6V22.5z M57.1,37.8
				h13.3L57.1,51.1V37.8z M57.1,53.2h13.4L57.1,66.6V53.2z M57.1,68.6h13.5L57.1,82.1V68.6z M57.1,84h13.6L57.1,97.5V84z M57.1,99.4
				L57.1,99.4l13.7,0L57.1,113V99.4z M57.1,114.9l0.1-0.1h13.7l-13.8,13.8V114.9z M57.1,130.3l0.2-0.2H71L57.1,144V130.3z
				 M57.1,145.8l0.3-0.3h13.7l-14,14V145.8z M55.8,5.8H42.2L55.8-7.8V5.8z M41.4-8.3h13.1L41.4,4.8V-8.3z M41.4,7.1h13.2L41.4,20.3
				V7.1z M41.4,22.5h13.4L41.4,35.8V22.5z M41.4,37.8h13.5L41.4,51.3V37.8z M41.4,53.2h13.6L41.4,66.8V53.2z M41.4,68.6L41.4,68.6
				l13.7,0L41.4,82.3V68.6z M41.4,84.1l0.1-0.1h13.7L41.4,97.8V84.1z M41.4,99.6l0.2-0.2h13.7l-13.9,13.9V99.6z M41.4,115.1l0.3-0.3
				h13.7l-14,14V115.1z M41.4,130.6l0.5-0.4h13.7l-14.1,14.1h0V130.6z M41.4,146.1l0.6-0.6h13.7l-14.1,14.1h-0.1V146.1z M40.1,5.8
				H26.8L40.1-7.5V5.8z M25.7-8.3H39L25.7,5.1V-8.3z M25.7,7.1h13.5L25.7,20.5V7.1z M25.7,22.5h13.6L25.7,36V22.5z M25.7,37.9
				L25.7,37.9l13.7,0L25.7,51.5V37.9z M25.7,53.3l0.1-0.1h13.7L25.7,67V53.3z M25.7,68.8l0.2-0.2h13.7L25.7,82.5V68.8z M25.7,84.3
				L26,84h13.7l-14,14V84.3z M25.7,99.8l0.4-0.4h13.7l-14.1,14.1h0V99.8z M25.7,115.3l0.6-0.6h13.7l-14.1,14.1h-0.1V115.3z
				 M25.7,130.8l0.7-0.7H40l-14.1,14.1h-0.2V130.8z M25.7,146.3l0.8-0.8h13.6v0L26,159.6h-0.4V146.3z M24.4,5.8H11.3L24.4-7.3V5.8z
				 M10-8.3h13.6L10,5.3V-8.3z M10,7.1L10,7.1l13.7,0L10,20.8V7.1z M10,22.6l0.1-0.1h13.7L10,36.2V22.6z M10,38.1l0.2-0.2h13.7
				L10,51.7V38.1z M10,53.6l0.3-0.3H24l-14,14V53.6z M10,69l0.5-0.4h13.7L10,82.7h0V69z M10,84.5l0.6-0.6h13.7L10.1,98.1H10V84.5z
				 M10,100l0.7-0.7h13.7l-14.1,14.1H10V100z M10,115.5l0.8-0.8h13.6v0l-14.1,14.1H10V115.5z M10,131l0.9-0.9h13.5v0.1l-13.9,14H10
				V131z M10,146.5l1-1h13.4v0.2l-13.8,13.9H10V146.5z M8.7,5.8H-4.2L8.7-7.1V5.8z M-5.7-8.2l0.1-0.1H8L-5.7,5.5V-8.2z M-5.7,7.3
				l0.2-0.2H8.2L-5.7,21V7.3z M-5.7,22.8l0.3-0.3H8.3l-14,14V22.8z M-5.7,38.3l0.4-0.4H8.4L-5.7,51.9h0V38.3z M-5.7,53.8l0.5-0.6
				H8.5L-5.6,67.3h-0.1V53.8z M-5.7,69.3l0.7-0.7H8.6L-5.5,82.7h-0.2V69.3z M-5.7,84.7L-5,84H8.7v0L-5.4,98.1h-0.4V84.7z
				 M-5.7,100.2l0.9-0.9H8.7v0.1l-14,14h-0.5V100.2z M-5.7,115.7l1-1H8.7v0.2l-13.9,13.8h-0.6V115.7z M-5.7,131.2l1.1-1.1H8.7v0.3
				l-13.7,13.7h-0.7V131.2z M-5.7,146.7l1.2-1.2H8.7v0.5L-5,159.6h-0.8V146.7z"/>
		</g>
	</g>
</g>
</svg>
