<?xml version="1.0" encoding="utf-8"?>
<!-- Generator: Adobe Illustrator 27.8.1, SVG Export Plug-In . SVG Version: 6.00 Build 0)  -->
<svg version="1.1" id="Слой_1" xmlns="http://www.w3.org/2000/svg" xmlns:xlink="http://www.w3.org/1999/xlink" x="0px" y="0px"
	 viewBox="0 0 110 150" style="enable-background:new 0 0 110 150;" xml:space="preserve">
<style type="text/css">
	.st0{fill:#C9C9C9;}
	.st1{fill:#FFFFFF;}
	.st2{fill:#333333;}
	.st3{fill:#D66142;}
	.st4{fill:#EBB07A;}
	.st5{opacity:0.2;fill:#616161;}
	.st6{opacity:0.2;}
	.st7{fill:#616161;}
	.st8{fill:#FFD675;}
</style>
<g>
	<g>
		<path class="st0" d="M13.2,150c-6.3,0-11.5-5.1-11.5-11.3L1.4,11.3C1.3,5.1,6.5,0,12.9,0L97,0.2c6.3,0,11.5,5.1,11.5,11.4v127.1
			c0,6.2-5.1,11.3-11.5,11.3L13.2,150z"/>
		<path class="st1" d="M14.4,149.8c-6.3,0-11.3-5.1-11.3-11.3V11.5C3,5.2,8.1,0.2,14.4,0.2h82.9c6.3,0,11.3,5.1,11.3,11.3v127.1
			c0,6.2-5.1,11.3-11.3,11.3H14.4z"/>
	</g>
	<g>
		<g>
			<path class="st2" d="M13.7,8.1c-0.3,0.4-0.6,0.8-0.9,1c-0.4,0.2-0.7,0.3-1.1,0.3c-0.1,0-0.5-0.1-1.3-0.3C10.1,9.1,9.8,9,9.5,9
				C9.3,9,9.1,9,8.9,9.1c-0.2,0-0.3,0.1-0.5,0.2H8.4V9.1c0.3-0.6,0.6-1,0.9-1.2c0.3-0.2,0.8-0.4,1.4-0.4c0.4,0,0.8,0.1,1.2,0.2
				C12.2,7.9,12.5,8,12.9,8c0.1,0,0.2,0,0.4,0c0.1,0,0.3,0,0.5,0V8.1z M13.8,15.2c0,0.8-0.3,1.4-0.9,1.9c-0.6,0.5-1.4,0.7-2.3,0.7
				c-0.6,0-1-0.1-1.4-0.3c-0.5-0.3-0.7-0.6-0.7-1.1c0-0.2,0.1-0.4,0.2-0.6c0.2-0.2,0.4-0.4,0.8-0.4c0.2,0,0.4,0.1,0.6,0.2
				c0.2,0.1,0.2,0.3,0.2,0.5c0,0.3-0.1,0.6-0.4,0.7C9.5,16.9,9.4,17,9.4,17c0,0.1,0.1,0.2,0.2,0.2c0.2,0.2,0.4,0.2,0.7,0.2
				c0.3,0,0.6-0.1,0.8-0.2c0.2-0.1,0.3-0.4,0.3-0.6V9.8c0.4-0.1,0.8-0.3,1.2-0.4c0.4-0.1,0.7-0.3,1-0.6h0.2V15.2z"/>
			<path class="st2" d="M13.2,24.4c0,0.4-0.1,0.8-0.2,1.1c-0.1,0.2-0.2,0.4-0.3,0.6c-0.3,0.3-0.5,0.6-0.6,0.8
				c-0.4,0.5-0.7,0.8-0.9,0.8c-0.1,0-0.2-0.1-0.4-0.2c-0.2-0.1-0.3-0.3-0.5-0.4C10,26.8,9.6,26.4,9.4,26c-0.2-0.4-0.3-0.9-0.3-1.3
				c0-0.4,0.1-0.7,0.2-1c0.1-0.3,0.3-0.6,0.4-0.8c0.9-1.2,1.4-1.8,1.5-1.8c0.1,0,0.3,0.2,0.6,0.6c0.4,0.4,0.7,0.8,0.9,1.1
				c0.1,0.2,0.2,0.5,0.3,0.8C13.2,23.8,13.2,24.1,13.2,24.4z M12.1,25.8c0-0.7-0.2-1.3-0.5-1.9c-0.5-0.9-0.9-1.3-1.2-1.3
				c-0.1,0-0.2,0.1-0.2,0.2c0,0.1-0.1,0.3-0.1,0.5c0,0.7,0.1,1.3,0.4,1.7c0.2,0.3,0.7,0.8,1.4,1.3c0.1-0.1,0.1-0.1,0.1-0.2
				C12.1,26.1,12.1,25.9,12.1,25.8z"/>
			<path class="st2" d="M13.3,38.1c-0.2,0.2-0.3,0.3-0.4,0.4c-0.3,0.3-0.5,0.4-0.7,0.4c-0.4,0-0.6-0.5-0.8-1.6
				c-0.1-0.6-0.2-1-0.4-1.2h-0.2c0,0-0.1,0.1-0.1,0.1V39H9.1v-8.1c0.1-0.1,0.2-0.2,0.4-0.2c0.5-0.2,0.8-0.3,1-0.4h0.3v3.2
				c0.1,0,0.4-0.1,0.9-0.4c0.2-0.1,0.5-0.3,0.7-0.4c0.1,0,0.2,0.1,0.4,0.4c0.2,0.3,0.3,0.6,0.3,1c0,0.4-0.2,0.8-0.5,1
				c-0.3,0.3-0.5,0.5-0.5,0.6c0,0,0.1,0.2,0.3,0.5c0.2,0.3,0.3,0.4,0.3,0.5c0,0.1,0.1,0.4,0.2,0.8c0,0.1,0,0.1,0.1,0.2
				c0,0.1,0.1,0.2,0.2,0.3C13.2,38,13.3,38.1,13.3,38.1z M11.7,34.7c0-0.2,0-0.4-0.1-0.5c-0.1-0.2-0.3-0.3-0.4-0.3
				c-0.1,0-0.1,0-0.2,0.1c-0.1,0.1-0.2,0.1-0.2,0.2v1.5c0.3,0,0.5-0.2,0.6-0.4C11.6,35,11.7,34.9,11.7,34.7z"/>
			<path class="st2" d="M12.9,45.5c0,0.2-0.3,0.6-1,1.2c-0.6,0.5-1,0.9-1,0.9c0,0.2,0.5,0.7,1.5,1.5c0,0.1-0.2,0.3-0.6,0.6
				c-0.4,0.3-0.6,0.5-0.6,0.5c0,0-0.2-0.1-0.4-0.2c-0.2-0.1-0.4-0.3-0.6-0.5c-0.4-0.4-0.6-0.8-0.8-1.3c-0.2-0.4-0.2-0.8-0.2-1.1
				c0-0.2,0.1-0.5,0.2-0.8c0.1-0.3,0.3-0.6,0.5-0.9c0.1-0.2,0.4-0.5,0.8-0.9c0.5-0.5,0.7-0.7,0.9-0.7c0,0,0.1,0.1,0.3,0.3
				c0.1,0.2,0.3,0.4,0.4,0.6c0,0,0.1,0.2,0.3,0.4C12.8,45.3,12.9,45.5,12.9,45.5z M11.6,46.2c0,0-0.1-0.2-0.2-0.4
				c-0.2-0.3-0.4-0.6-0.5-0.8h-0.1c-0.1,0.2-0.2,0.4-0.2,0.6c0,0.2-0.1,0.3-0.1,0.4c0,0.3,0,0.5,0.1,0.7c0.1,0.2,0.1,0.3,0.2,0.3
				c0.1,0,0.3-0.1,0.5-0.4C11.5,46.4,11.6,46.3,11.6,46.2z"/>
			<path class="st2" d="M12.9,56c0,0.1-0.1,0.2-0.2,0.4c-0.3,0.3-0.5,0.5-0.6,0.5c-0.1,0-0.1-0.1-0.2-0.2c-0.1-0.2-0.3-0.3-0.4-0.4
				v5.2H9.8v-5.2c0-0.1,0-0.2-0.1-0.3c-0.1-0.1-0.2-0.2-0.2-0.3c0-0.1,0.2-0.2,0.5-0.5c0.3-0.2,0.5-0.3,0.6-0.3
				c0.1,0,0.2,0.1,0.4,0.2c0.1,0.1,0.3,0.3,0.4,0.5c0.1,0,0.2-0.1,0.4-0.3c0.2-0.2,0.3-0.3,0.4-0.3c0.2,0.1,0.3,0.2,0.3,0.3
				C12.7,55.5,12.9,55.7,12.9,56z"/>
		</g>
		<g>
			<path class="st3" d="M99.9,134.3c0-0.8,0.3-1.4,0.9-1.9c0.6-0.5,1.4-0.7,2.3-0.7c0.6,0,1,0.1,1.4,0.3c0.5,0.3,0.7,0.6,0.7,1.1
				c0,0.2-0.1,0.4-0.2,0.6c-0.2,0.2-0.4,0.4-0.8,0.4c-0.2,0-0.4-0.1-0.6-0.2c-0.2-0.1-0.3-0.3-0.3-0.5c0-0.3,0.1-0.6,0.4-0.7
				c0.3-0.1,0.4-0.2,0.4-0.3c-0.1-0.1-0.1-0.2-0.2-0.2c-0.2-0.1-0.4-0.2-0.7-0.2c-0.3,0-0.6,0.1-0.8,0.2c-0.2,0.1-0.3,0.4-0.3,0.6
				v6.8c-0.4,0.1-0.8,0.3-1.2,0.4c-0.4,0.1-0.7,0.3-1,0.6h-0.2V134.3z M99.9,141.3c0.2-0.4,0.6-0.8,0.9-1c0.4-0.2,0.7-0.3,1.1-0.3
				c0.1,0,0.5,0.1,1.3,0.3c0.3,0.1,0.7,0.1,0.9,0.1c0.2,0,0.3,0,0.5-0.1c0.2,0,0.3-0.1,0.5-0.2h0.1v0.2c-0.3,0.6-0.6,1-0.9,1.2
				c-0.3,0.2-0.8,0.4-1.4,0.4c-0.4,0-0.8-0.1-1.2-0.2c-0.4-0.1-0.7-0.2-1.1-0.2c-0.1,0-0.2,0-0.4,0c-0.2,0-0.3,0-0.5,0V141.3z"/>
			<path class="st3" d="M100.4,125.1c0-0.4,0.1-0.8,0.2-1.1c0.1-0.2,0.2-0.4,0.3-0.6c0.3-0.3,0.5-0.6,0.6-0.8
				c0.4-0.5,0.7-0.8,0.9-0.8c0.1,0,0.3,0.1,0.4,0.2c0.2,0.1,0.3,0.3,0.5,0.4c0.4,0.3,0.7,0.7,0.9,1.1c0.2,0.4,0.3,0.9,0.3,1.3
				c0,0.4-0.1,0.7-0.2,1c-0.1,0.3-0.3,0.6-0.4,0.8c-0.9,1.2-1.4,1.8-1.5,1.8c-0.1,0-0.3-0.2-0.6-0.6c-0.4-0.4-0.7-0.8-0.9-1.1
				c-0.1-0.2-0.2-0.5-0.3-0.8C100.5,125.6,100.4,125.4,100.4,125.1z M101.5,123.6c0,0.7,0.2,1.3,0.5,1.9c0.5,0.9,0.9,1.3,1.2,1.3
				c0.1,0,0.2-0.1,0.2-0.2c0-0.1,0.1-0.3,0.1-0.5c0-0.7-0.1-1.3-0.4-1.7c-0.2-0.3-0.7-0.8-1.4-1.3c-0.1,0.1-0.1,0.1-0.1,0.2
				C101.6,123.4,101.5,123.5,101.5,123.6z"/>
			<path class="st3" d="M100.4,111.3c0.2-0.2,0.3-0.3,0.4-0.4c0.3-0.3,0.5-0.4,0.7-0.4c0.4,0,0.6,0.5,0.8,1.6c0.1,0.6,0.2,1,0.4,1.1
				h0.2c0,0,0-0.1,0-0.1v-2.6h1.7v8.1c-0.1,0.1-0.2,0.2-0.4,0.3c-0.5,0.2-0.8,0.3-1,0.4h-0.3V116c-0.1,0-0.4,0.1-0.9,0.4
				c-0.2,0.1-0.5,0.3-0.7,0.4c-0.1,0-0.2-0.1-0.4-0.4c-0.2-0.3-0.3-0.6-0.3-1c0-0.4,0.2-0.8,0.5-1.1c0.3-0.3,0.5-0.5,0.5-0.6
				c0,0-0.1-0.2-0.3-0.4c-0.2-0.3-0.3-0.4-0.3-0.5c0-0.1-0.1-0.4-0.2-0.8c0-0.1,0-0.1-0.1-0.2c0-0.1-0.1-0.2-0.2-0.3
				C100.4,111.5,100.4,111.4,100.4,111.3z M102,114.8c0,0.2,0,0.4,0.1,0.5c0.1,0.2,0.2,0.3,0.4,0.3c0.1,0,0.1,0,0.2-0.1
				c0.1-0.1,0.2-0.1,0.2-0.2v-1.5c-0.3,0-0.5,0.2-0.6,0.4C102.1,114.4,102,114.6,102,114.8z"/>
			<path class="st3" d="M100.7,103.9c0-0.2,0.3-0.6,1-1.2c0.6-0.5,1-0.9,1-0.9c0-0.2-0.5-0.7-1.5-1.5c0-0.1,0.2-0.3,0.6-0.6
				c0.4-0.3,0.6-0.5,0.6-0.5c0.1,0,0.2,0.1,0.4,0.2c0.2,0.1,0.4,0.3,0.6,0.5c0.4,0.4,0.6,0.8,0.8,1.3c0.1,0.4,0.2,0.8,0.2,1.1
				c0,0.2-0.1,0.5-0.2,0.8c-0.1,0.3-0.3,0.6-0.5,0.9c-0.1,0.2-0.4,0.5-0.8,0.9c-0.5,0.5-0.7,0.7-0.9,0.7c0,0-0.1-0.1-0.3-0.3
				c-0.1-0.2-0.3-0.4-0.4-0.6c0,0-0.1-0.2-0.3-0.4C100.8,104.1,100.7,104,100.7,103.9z M102.1,103.2c0,0,0.1,0.2,0.2,0.4
				c0.2,0.3,0.4,0.6,0.5,0.8h0.1c0.1-0.2,0.1-0.4,0.2-0.6c0.1-0.2,0.1-0.3,0.1-0.4c0-0.3,0-0.5-0.1-0.7c-0.1-0.2-0.1-0.3-0.2-0.3
				c-0.1,0-0.3,0.1-0.5,0.4C102.2,103,102.1,103.2,102.1,103.2z"/>
			<path class="st3" d="M100.8,93.5c0-0.1,0.1-0.2,0.2-0.4c0.3-0.3,0.5-0.5,0.6-0.5c0,0,0.1,0.1,0.2,0.2c0.1,0.2,0.3,0.3,0.4,0.4
				v-5.2h1.7v5.2c0,0.1,0,0.2,0.1,0.3c0.1,0.1,0.2,0.2,0.2,0.3c0,0.1-0.2,0.2-0.5,0.5c-0.3,0.2-0.5,0.3-0.6,0.3
				c-0.1,0-0.2-0.1-0.4-0.2c-0.1-0.1-0.3-0.3-0.4-0.5c-0.1,0-0.2,0.1-0.4,0.3c-0.2,0.2-0.4,0.3-0.4,0.3c-0.2-0.1-0.3-0.2-0.4-0.3
				C100.9,94,100.8,93.7,100.8,93.5z"/>
		</g>
		<g>
			<g>
				<path class="st3" d="M55.7,45.4c-20.1,0-36.5,16.4-36.5,36.5c0,8.2,2.7,15.8,7.3,21.9c2.3,3,5,5.7,8.1,7.9
					c6,4.2,13.2,6.7,21.1,6.7c8.1,0,15.6-2.6,21.6-7.1c3.2-2.4,6-5.2,8.3-8.5c4.2-5.9,6.6-13.1,6.6-20.9
					C92.2,61.8,75.9,45.4,55.7,45.4z M84.4,100.3c-1.7,2.7-3.8,5.1-6.2,7.2c-6,5.3-13.9,8.5-22.5,8.5c-7.8,0-15-2.6-20.7-7
					c-2.8-2.2-5.3-4.7-7.3-7.6c-3.8-5.5-6.1-12.2-6.1-19.4c0-18.8,15.3-34.1,34.1-34.1c18.8,0,34.1,15.3,34.1,34.1
					C89.8,88.7,87.8,95,84.4,100.3z"/>
			</g>
			<g>
				<g>
					<path class="st4" d="M59.4,68.4v5.3c0,2.3-1.6,4.2-3.6,4.2c-1,0-1.9-0.5-2.6-1.2c-0.7-0.8-1.1-1.8-1.1-3v-5.3
						c0-2.3,1.6-4.2,3.6-4.2c1,0,1.9,0.5,2.6,1.2C59,66.2,59.4,67.3,59.4,68.4z"/>
					<g>
						<path class="st5" d="M59.4,68.4v1.5c-1.1,0.3-2.3,0.4-3.5,0.4c-1.3,0-2.5-0.2-3.8-0.5v-1.4c0-2.3,1.6-4.2,3.6-4.2
							c1,0,1.9,0.5,2.6,1.2C59,66.2,59.4,67.3,59.4,68.4z"/>
					</g>
				</g>
				<path class="st4" d="M71.5,53c0,8.7-7,15.7-15.7,15.7c-8.7,0-15.9-7.3-15.9-16c0-0.7,0.1-1.5,0.2-2.2c0.4-2.9,1.7-5.5,3.5-7.6
					c2-2.3,4.6-4,7.6-4.9c1.5-0.4,3-0.7,4.6-0.7c1.5,0,2.9,0.2,4.3,0.6c3,0.8,5.6,2.6,7.6,4.9c1.9,2.2,3.2,4.9,3.6,7.8
					C71.5,51.4,71.5,52.2,71.5,53z"/>
				<g>
					<polygon class="st3" points="22.5,39.9 24.8,36.6 27.3,39.8 25,43.1 					"/>
					<path class="st2" d="M27.7,46.2c0-0.6-2.6-3.2-2.6-3.2s-2.6,2.7-2.6,3.2c0,0.9,0.7,1.6,1.6,1.6c0.3,0,0.6-0.1,0.8-0.2l-1,1.7
						h2.4l-1-1.7c0.2,0.1,0.5,0.2,0.8,0.2C27,47.8,27.7,47.1,27.7,46.2z"/>
					<g>
						<path class="st3" d="M59.3,38l-1.5,1l-1.9-1.7L40.2,49.9l-1.3-5l-1.2-4.7l-0.8-2.9L36,34.9L35,32l-0.9-2.5l-0.7,0.4l-3,1.5
							l-2.4,1.2l-1.6,0.8l-0.9,1.8l-0.8,1.6l-0.8-1.9l-0.8-1.8l1.8-2.8l3.2-4.9l2-3.1l4,0.4l9.8,1l3.8,0.4c0,0,0.9,1.3,2.2,2.9
							c1.3,1.7,2.8,3.8,4,5.2c0.8,1,1.4,1.7,1.4,1.7l0.3,0.3L59.3,38z"/>
						<polygon class="st2" points="24.7,36.7 23.1,33.1 26.1,33.8 						"/>
						<polygon class="st2" points="30.4,31.4 27.9,32.5 24.9,30.3 28.1,25.4 						"/>
						<path class="st2" d="M53.8,32.2l-16.1,8.1l-0.8-2.9L36,34.9L49.9,27C51.1,28.7,52.7,30.8,53.8,32.2z"/>
						<path class="st2" d="M43.9,23.7C41.4,26.2,37.6,30,35,32l-0.9-2.5l-0.7,0.4l0.7-7.1L43.9,23.7z"/>
					</g>
					<g>
						<path class="st3" d="M56.3,37.3l14.9,12.6l1.3-5l1.2-4.7l0.8-2.9l0.9-2.4l1-2.9l0.9-2.5l0.7,0.4l3,1.5l2.4,1.2l1.6,0.8
							l0.9,1.8l0.8,1.6l0.8-1.9l0.8-1.8l-1.8-2.8l-3.2-4.9l-2-3.1l-4,0.4l-9.8,1l-3.8,0.4c0,0-0.9,1.3-2.2,2.9
							c-1.3,1.7-2.8,3.8-4,5.2c-0.8,1-1.4,1.7-1.4,1.7l-0.3,0.3L56.3,37.3z"/>
						<polygon class="st2" points="85.4,33.8 88.3,33.1 86.7,36.7 						"/>
						<polygon class="st2" points="81.1,31.4 83.5,32.5 86.5,30.3 83.4,25.4 						"/>
						<path class="st2" d="M57.7,32.2l16.1,8.1l0.8-2.9l0.9-2.4L61.6,27C60.4,28.7,58.8,30.8,57.7,32.2z"/>
						<path class="st2" d="M67.6,23.7c2.5,2.5,6.3,6.2,8.9,8.3l0.9-2.5l0.7,0.4l-0.7-7.1L67.6,23.7z"/>
					</g>
					<path class="st3" d="M89.4,37.7c0,0.6-2.6,3.1-2.6,3.1s-2.5-2.6-2.5-3.1c0-0.9,0.7-1.6,1.6-1.6c0.3,0,0.6,0.1,0.8,0.2l0.2,0.2
						l0.2-0.2c0.2-0.1,0.5-0.2,0.8-0.2C88.7,36.1,89.4,36.8,89.4,37.7z"/>
					<path class="st2" d="M88.3,42.6c0-0.1,0-0.2,0-0.3c0-0.8-0.6-1.4-1.4-1.4c-0.8,0-1.4,0.6-1.4,1.4c0,0.2,0,0.3,0.1,0.5
						c-0.7,0.1-1.3,0.6-1.3,1.4c0,0.8,0.6,1.4,1.4,1.4c0.2,0,0.4,0,0.6-0.1c0.2,0,0.3-0.1,0.5-0.2l-0.9,1.6H88l-0.9-1.6
						c0.2,0.1,0.4,0.2,0.6,0.2c0.2,0.1,0.4,0.1,0.5,0.1c0.8,0,1.4-0.6,1.4-1.4C89.7,43.2,89.1,42.6,88.3,42.6z"/>
					<path class="st5" d="M71.3,50.6l-0.1,0.3l-8-6.5L55.7,50l-7.4-5.6l-8.2,6.6l-0.1-0.4c0.4-2.9,1.7-5.5,3.5-7.6l7.6-4.9
						c1.5-0.4,3-0.7,4.6-0.7c1.5,0,2.9,0.2,4.3,0.6l7.6,4.9C69.6,45,70.9,47.7,71.3,50.6z"/>
					<polygon class="st2" points="72.6,44.9 55.9,34.3 55.7,34.4 55.6,34.3 38.9,44.9 40.2,49.9 48.4,43.4 55.7,49 63.3,43.5 
						71.3,49.9 					"/>
				</g>
				<path class="st2" d="M85.6,102.8c-1.3,1.8-2.7,3.5-4.3,5.1c-1.2,1.2-2.6,2.4-4,3.4l-1-0.3l1.9-3.5l0.9-1.7l-6.3-9v17.3
					c-1.3,0.7-2.7,1.3-4.1,1.9c-4,1.6-8.5,2.4-13.1,2.4c-1.3,0-2.6-0.1-3.8-0.2c-3.7-0.4-7.2-1.3-10.4-2.7l-0.1-2.7l-0.3-17.5
					l-6.9,9.5l-0.8,1.2L35,109l1.2,2.2l-1.6,0.5c-3.1-2.2-5.8-4.8-8.1-7.9l1.2-2.5l6-12.5l4-8.4l4.8-2.3c1.6-2.1,4.1-3.5,7-3.7
					c0,0,0,0,0.1,0c0.2,0,0.4,0,0.6,0h13c0.2,0,0.4,0,0.6,0h0c3,0.2,5.7,1.8,7.3,4.2l3.6,1.7L79,89l5.4,11.3L85.6,102.8z"/>
				<g>
					<path class="st5" d="M51.9,118.2c-3.7-0.4-7.2-1.3-10.4-2.7l-0.1-2.7l-0.3-17.5l-6.9,9.5l8-14.5l1.4,23.5L51.9,118.2z"/>
					<path class="st5" d="M81.6,105.6l-0.2,2.3c-1.2,1.2-2.6,2.4-4,3.4l-1-0.3l1.9-3.5l0.9-1.7l-6.3-9v17.3
						c-1.3,0.7-2.7,1.3-4.1,1.9l2.2-1.7l1.1-22.9L81.6,105.6z"/>
				</g>
				<g>
					<g class="st6">
						<path class="st7" d="M42.6,78.1l-4.8,2.3l-4,8.4l15.8-14.4C46.7,74.6,44.2,76,42.6,78.1z"/>
						<path class="st7" d="M57.6,74.4l-8.1,0h0l0,0l5.7,23.2c-0.9,0.3-1.6,1.2-1.6,2.1c0,1.3,1,2.3,2.2,2.3c1.3,0,2.3-1,2.3-2.3
							c0-1.1-0.7-1.9-1.7-2.2L63,74.3L57.6,74.4z"/>
						<path class="st7" d="M74.8,80.2l-3.6-1.7c-1.6-2.4-4.3-3.9-7.3-4.2h-0.8L79,89L74.8,80.2z"/>
					</g>
					<g>
						<polygon class="st3" points="49.6,74.4 40.5,74.4 30.3,86.4 49.6,74.4 55.7,94.1 63.1,74.4 49.6,74.4 						"/>
						<polygon class="st3" points="72.2,74.4 63.1,74.4 82.4,86.4 						"/>
					</g>
					<path class="st8" d="M31.3,88c0,1.2-1,2.3-2.3,2.3c-1.3,0-2.3-1-2.3-2.3c0-1.3,1-2.3,2.3-2.3C30.3,85.8,31.3,86.8,31.3,88z"/>
					<path class="st8" d="M58,96.4c0,1.3-1,2.3-2.3,2.3c-1.3,0-2.3-1-2.3-2.3c0-1.3,1-2.3,2.3-2.3C57,94.1,58,95.2,58,96.4z"/>
					<path class="st8" d="M86.1,88c0,1.2-1,2.3-2.3,2.3c-1.2,0-2.3-1-2.3-2.3c0-1.3,1-2.3,2.3-2.3C85.1,85.8,86.1,86.8,86.1,88z"/>
				</g>
				<g>
					<path class="st2" d="M50,54.6c0.1-0.2,0.1-0.4,0.1-0.7c0-1.4-1.2-2.6-2.6-2.6c-1.4,0-2.6,1.2-2.6,2.6c0,0.2,0,0.4,0.1,0.7H50z"
						/>
					<path class="st2" d="M66.5,54.6c0.1-0.2,0.1-0.4,0.1-0.7c0-1.4-1.2-2.6-2.6-2.6c-1.4,0-2.6,1.2-2.6,2.6c0,0.2,0,0.4,0.1,0.7
						H66.5z"/>
					<path class="st5" d="M58,57.5c0,1.3-1,2.3-2.3,2.3c-1.3,0-2.3-1-2.3-2.3c0-1.3,1-4.9,2.3-4.9C57,52.5,58,56.2,58,57.5z"/>
				</g>
			</g>
			<g>
				<path class="st5" d="M88.3,42.6c0-0.1,0-0.2,0-0.3c0-0.8-0.6-1.4-1.4-1.4c-0.8,0-1.4,0.6-1.4,1.4c0,0.2,0,0.3,0.1,0.5
					c-0.7,0.1-1.3,0.6-1.3,1.4c0,0.8,0.6,1.4,1.4,1.4c0.2,0,0.4,0,0.6-0.1c0.2,0,0.3-0.1,0.5-0.2l-0.9,1.6H88l-0.9-1.6
					c0.2,0.1,0.4,0.2,0.6,0.2c0.2,0.1,0.4,0.1,0.5,0.1c0.8,0,1.4-0.6,1.4-1.4C89.7,43.2,89.1,42.6,88.3,42.6z"/>
				<path class="st5" d="M87.9,36.1c-0.3,0-0.6,0.1-0.8,0.2l-0.2,0.2l0,0l0.7-1.7l0.8-1.8l0,0l-1.8-2.8l-3.2-4.9l-2-3.1l-4,0.4
					l-9.8,1l-3.8,0.4c0,0-0.9,1.3-2.2,2.9c-1.3,1.7-2.8,3.8-4,5.2c-0.8,1-1.4,1.7-1.4,1.7l-0.3,0.3l-0.1,0.1l0,0v84c0,0,0,0,0,0
					c4.6,0,9-0.9,13.1-2.4c1.4-0.5,2.8-1.2,4.1-1.9V96.8l6.3,9l-0.9,1.7l-1.9,3.5l1,0.3c1.4-1,2.7-2.2,4-3.4c1.6-1.6,3-3.3,4.3-5.1
					l-1.2-2.5L79,89l-3.2-6.7l6.6,4.1c-0.5,0.4-0.8,1-0.8,1.7c0,1.2,1,2.3,2.3,2.3c1.3,0,2.3-1,2.3-2.3c0-1.3-1-2.3-2.3-2.3
					c-0.6,0-1.1,0.2-1.5,0.6l-10.2-12h-9.1v0h0l0,0h-3.8c0-0.2,0.1-0.4,0.1-0.6v-5.3c0-0.1,0-0.1,0-0.2c7-1.6,12.2-7.8,12.2-15.3
					c0-0.8-0.1-1.6-0.2-2.4c0-0.3-0.1-0.5-0.1-0.7l0.1,0.1l1.3-5l1.2-4.7l0.8-2.9l0.9-2.4l1-2.9l0.9-2.5l0.7,0.4l3,1.5l2.4,1.2
					l1.6,0.8l0.9,1.8l0.5,1.2c-0.2-0.1-0.5-0.2-0.7-0.2c-0.9,0-1.6,0.7-1.6,1.6c0,0.5,2.5,3.1,2.5,3.1s2.6-2.6,2.6-3.1
					C89.4,36.8,88.7,36.1,87.9,36.1z"/>
			</g>
			<g>
				<path class="st3" d="M92.2,81.9c0,7.8-2.4,15-6.6,20.9c-2.3,3.3-5.1,6.1-8.3,8.5c-1.4,1-2.9,2-4.5,2.8
					c-5.1,2.7-10.9,4.3-17.1,4.3c-5.1,0-9.9-1-14.2-2.9c-2.4-1-4.7-2.3-6.9-3.9c-3.1-2.2-5.8-4.8-8.1-7.9
					c-4.6-6.1-7.3-13.7-7.3-21.9c0-12.3,6.1-23.3,15.6-29.9v3c-8,6.2-13.1,15.9-13.1,26.8c0,7.2,2.2,13.9,6.1,19.4
					c2,2.9,4.5,5.5,7.3,7.6c2,1.5,4.1,2.8,6.4,3.9c4.3,2,9.2,3.1,14.3,3.1c6.2,0,12.1-1.7,17.1-4.6c1.9-1.1,3.7-2.4,5.4-3.9
					c2.4-2.1,4.5-4.5,6.2-7.2c3.4-5.3,5.4-11.6,5.4-18.4c0-11.4-5.6-21.5-14.2-27.7v-2.9C85.6,57.9,92.2,69.1,92.2,81.9z"/>
			</g>
			<g>
				<g>
					<g>
						
							<rect x="29.4" y="111.6" transform="matrix(0.9605 -0.2784 0.2784 0.9605 -32.2833 14.7197)" class="st1" width="12.5" height="18.8"/>
						<path class="st2" d="M31.9,132.5l-5.6-19.2l13.1-3.8l5.6,19.2L31.9,132.5z M27.8,114.1l4.9,17l10.9-3.1l-4.9-17L27.8,114.1z"
							/>
					</g>
					<polygon class="st3" points="32.2,122.4 34.4,116.8 39.2,120.5 37,126.1 					"/>
				</g>
				<g>
					<g>
						
							<rect x="44.7" y="107" transform="matrix(0.9585 -0.2851 0.2851 0.9585 -31.0573 19.35)" class="st1" width="12.5" height="18.8"/>
						<path class="st2" d="M47.3,127.9l-5.7-19.1l13.1-3.9l5.7,19.1L47.3,127.9z M43,109.5l5,16.9l10.9-3.2l-5-16.9L43,109.5z"/>
					</g>
					<path class="st2" d="M54.6,115.6c-0.3-0.9-5.1-3.5-5.1-3.5s-2.5,4.9-2.3,5.7c0.4,1.2,1.7,2,2.9,1.6c0.4-0.1,0.8-0.4,1.1-0.7
						l-0.7,2.8l3.4-1l-2.1-2c0.4,0.1,0.8,0.1,1.3,0C54.3,118.2,55,116.9,54.6,115.6z"/>
				</g>
				<g>
					<g>
						
							<rect x="59.9" y="102.4" transform="matrix(0.9604 -0.2785 0.2785 0.9604 -28.5349 22.8528)" class="st1" width="12.5" height="18.8"/>
						<path class="st2" d="M62.4,123.3l-5.6-19.2l13.1-3.8l5.6,19.2L62.4,123.3z M58.3,104.9l4.9,17l10.9-3.2l-4.9-17L58.3,104.9z"
							/>
					</g>
					<path class="st3" d="M69.9,109.9c0.3,0.9-2.4,5.6-2.4,5.6s-4.8-2.7-5-3.5c-0.4-1.2,0.3-2.5,1.6-2.9c0.4-0.1,0.9-0.1,1.2,0
						l0.4,0.2l0.2-0.4c0.3-0.3,0.6-0.5,1-0.7C68.2,107.9,69.5,108.6,69.9,109.9z"/>
				</g>
				<g>
					<g>
						
							<rect x="75.2" y="97.7" transform="matrix(0.9605 -0.2783 0.2783 0.9605 -26.6064 26.8916)" class="st1" width="12.5" height="18.8"/>
						<path class="st2" d="M77.6,118.6l-5.6-19.2l13.1-3.8l5.6,19.2L77.6,118.6z M73.5,100.3l4.9,17l10.9-3.1l-4.9-17L73.5,100.3z"
							/>
					</g>
					<path class="st2" d="M83.1,105.5c0-0.2,0-0.3-0.1-0.5c-0.3-1.1-1.5-1.8-2.7-1.5c-1.1,0.3-1.8,1.5-1.5,2.7
						c0.1,0.2,0.2,0.5,0.3,0.7c-1,0.4-1.5,1.5-1.2,2.5c0.3,1.1,1.4,1.7,2.5,1.4c0.3-0.1,0.5-0.2,0.8-0.4c0.3-0.1,0.5-0.3,0.6-0.5
						l-0.6,2.7l3.2-1l-2-1.9c0.3,0.1,0.6,0.1,1,0c0.3,0,0.5,0,0.8-0.1c1.1-0.3,1.8-1.5,1.5-2.7C85.4,105.8,84.3,105.2,83.1,105.5z"
						/>
				</g>
			</g>
			<g>
				<g>
					<polygon class="st2" points="61.3,50.6 59.8,49.7 60.3,48.7 61.3,49.3 65.2,47 66.9,48.4 66.2,49.3 65.1,48.4 					"/>
				</g>
				<g>
					<polygon class="st2" points="50.1,50.6 46.4,48.4 45.3,49.3 44.6,48.4 46.3,47 50.2,49.3 51.2,48.7 51.7,49.7 					"/>
				</g>
				<polygon class="st2" points="46.7,60.9 52.1,65.4 59,65.4 64.8,60.9 55.5,62.5 				"/>
			</g>
		</g>
	</g>
</g>
</svg>
